<svg width="1024" height="753" viewBox="0 0 1024 753" fill="none" xmlns="http://www.w3.org/2000/svg">
<g opacity="0.2" filter="url(#filter0_f_175_198)">
<ellipse cx="507.5" cy="28" rx="670.5" ry="350" fill="#338AF3"/>
</g>
<path d="M28.0349 264C29.5302 264 30.6622 264.63 31.4308 265.891C32.2134 267.138 32.6047 268.953 32.6047 271.336C32.6047 273.719 32.2134 275.541 31.4308 276.802C30.6622 278.063 29.5302 278.693 28.0349 278.693C26.5536 278.693 25.4216 278.063 24.639 276.802C23.8564 275.541 23.4651 273.719 23.4651 271.336C23.4651 268.967 23.8564 267.152 24.639 265.891C25.4216 264.63 26.5536 264 28.0349 264ZM24.9534 271.336C24.9534 273.026 25.1072 274.35 25.4146 275.306L30.0683 266.099C29.5791 265.448 28.9013 265.122 28.0349 265.122C27.0706 265.122 26.316 265.635 25.771 266.66C25.2259 267.672 24.9534 269.23 24.9534 271.336ZM28.0349 277.55C29.0131 277.55 29.7748 277.044 30.3198 276.033C30.8648 275.008 31.1373 273.442 31.1373 271.336C31.1373 269.549 30.9627 268.163 30.6133 267.18L25.9596 276.469C26.4627 277.19 27.1545 277.55 28.0349 277.55Z" fill="url(#paint0_linear_175_198)" fill-opacity="0.6"/>
<path d="M29.2926 301.135H32.3741V302.236H24.3874V301.135H27.9511V289.455L24.5551 291.471L23.9682 290.536L28.1607 287.959H29.2926V301.135Z" fill="url(#paint1_linear_175_198)" fill-opacity="0.6"/>
<path d="M28.0349 311.502C29.5302 311.502 30.6622 312.133 31.4308 313.393C32.2134 314.64 32.6047 316.455 32.6047 318.838C32.6047 321.221 32.2134 323.043 31.4308 324.304C30.6622 325.565 29.5302 326.195 28.0349 326.195C26.5536 326.195 25.4216 325.565 24.639 324.304C23.8564 323.043 23.4651 321.221 23.4651 318.838C23.4651 316.469 23.8564 314.654 24.639 313.393C25.4216 312.133 26.5536 311.502 28.0349 311.502ZM24.9534 318.838C24.9534 320.529 25.1072 321.852 25.4146 322.808L30.0683 313.601C29.5791 312.95 28.9013 312.624 28.0349 312.624C27.0706 312.624 26.316 313.137 25.771 314.162C25.2259 315.174 24.9534 316.732 24.9534 318.838ZM28.0349 325.052C29.0131 325.052 29.7748 324.546 30.3198 323.535C30.8648 322.51 31.1373 320.944 31.1373 318.838C31.1373 317.051 30.9627 315.665 30.6133 314.682L25.9596 323.971C26.4627 324.692 27.1545 325.052 28.0349 325.052Z" fill="url(#paint2_linear_175_198)" fill-opacity="0.6"/>
<path d="M29.2926 348.637H32.3741V349.738H24.3874V348.637H27.9511V336.957L24.5551 338.973L23.9682 338.038L28.1607 335.461H29.2926V348.637Z" fill="url(#paint3_linear_175_198)" fill-opacity="0.6"/>
<path d="M29.2926 372.388H32.3741V373.489H24.3874V372.388H27.9511V360.708L24.5551 362.724L23.9682 361.789L28.1607 359.212H29.2926V372.388Z" fill="url(#paint4_linear_175_198)" fill-opacity="0.6"/>
<path d="M28.0349 382.755C29.5302 382.755 30.6622 383.386 31.4308 384.646C32.2134 385.893 32.6047 387.708 32.6047 390.091C32.6047 392.474 32.2134 394.296 31.4308 395.557C30.6622 396.818 29.5302 397.448 28.0349 397.448C26.5536 397.448 25.4216 396.818 24.639 395.557C23.8564 394.296 23.4651 392.474 23.4651 390.091C23.4651 387.722 23.8564 385.907 24.639 384.646C25.4216 383.386 26.5536 382.755 28.0349 382.755ZM24.9534 390.091C24.9534 391.782 25.1072 393.105 25.4146 394.061L30.0683 384.854C29.5791 384.203 28.9013 383.878 28.0349 383.878C27.0706 383.878 26.316 384.39 25.771 385.415C25.2259 386.427 24.9534 387.985 24.9534 390.091ZM28.0349 396.305C29.0131 396.305 29.7748 395.8 30.3198 394.788C30.8648 393.763 31.1373 392.197 31.1373 390.091C31.1373 388.304 30.9627 386.919 30.6133 385.935L25.9596 395.225C26.4627 395.945 27.1545 396.305 28.0349 396.305Z" fill="url(#paint5_linear_175_198)" fill-opacity="0.6"/>
<path d="M29.2926 419.89H32.3741V420.992H24.3874V419.89H27.9511V408.21L24.5551 410.226L23.9682 409.291L28.1607 406.714H29.2926V419.89Z" fill="url(#paint6_linear_175_198)" fill-opacity="0.6"/>
<path d="M28.0349 430.257C29.5302 430.257 30.6622 430.888 31.4308 432.149C32.2134 433.396 32.6047 435.211 32.6047 437.594C32.6047 439.977 32.2134 441.798 31.4308 443.059C30.6622 444.32 29.5302 444.95 28.0349 444.95C26.5536 444.95 25.4216 444.32 24.639 443.059C23.8564 441.798 23.4651 439.977 23.4651 437.594C23.4651 435.224 23.8564 433.409 24.639 432.149C25.4216 430.888 26.5536 430.257 28.0349 430.257ZM24.9534 437.594C24.9534 439.284 25.1072 440.607 25.4146 441.563L30.0683 432.356C29.5791 431.705 28.9013 431.38 28.0349 431.38C27.0706 431.38 26.316 431.892 25.771 432.918C25.2259 433.929 24.9534 435.488 24.9534 437.594ZM28.0349 443.807C29.0131 443.807 29.7748 443.302 30.3198 442.29C30.8648 441.265 31.1373 439.699 31.1373 437.594C31.1373 435.806 30.9627 434.421 30.6133 433.437L25.9596 442.727C26.4627 443.447 27.1545 443.807 28.0349 443.807Z" fill="url(#paint7_linear_175_198)" fill-opacity="0.6"/>
<path d="M28.0349 454.008C29.5302 454.008 30.6622 454.639 31.4308 455.9C32.2134 457.147 32.6047 458.962 32.6047 461.345C32.6047 463.728 32.2134 465.549 31.4308 466.81C30.6622 468.071 29.5302 468.701 28.0349 468.701C26.5536 468.701 25.4216 468.071 24.639 466.81C23.8564 465.549 23.4651 463.728 23.4651 461.345C23.4651 458.975 23.8564 457.16 24.639 455.9C25.4216 454.639 26.5536 454.008 28.0349 454.008ZM24.9534 461.345C24.9534 463.035 25.1072 464.358 25.4146 465.314L30.0683 456.107C29.5791 455.456 28.9013 455.131 28.0349 455.131C27.0706 455.131 26.316 455.643 25.771 456.669C25.2259 457.68 24.9534 459.239 24.9534 461.345ZM28.0349 467.558C29.0131 467.558 29.7748 467.053 30.3198 466.041C30.8648 465.016 31.1373 463.451 31.1373 461.345C31.1373 459.557 30.9627 458.172 30.6133 457.188L25.9596 466.478C26.4627 467.198 27.1545 467.558 28.0349 467.558Z" fill="url(#paint8_linear_175_198)" fill-opacity="0.6"/>
<path d="M29.2926 491.143H32.3741V492.245H24.3874V491.143H27.9511V479.464L24.5551 481.48L23.9682 480.544L28.1607 477.967H29.2926V491.143Z" fill="url(#paint9_linear_175_198)" fill-opacity="0.6"/>
<path d="M28.0349 501.511C29.5302 501.511 30.6622 502.141 31.4308 503.402C32.2134 504.649 32.6047 506.464 32.6047 508.847C32.6047 511.23 32.2134 513.052 31.4308 514.312C30.6622 515.573 29.5302 516.204 28.0349 516.204C26.5536 516.204 25.4216 515.573 24.639 514.312C23.8564 513.052 23.4651 511.23 23.4651 508.847C23.4651 506.478 23.8564 504.663 24.639 503.402C25.4216 502.141 26.5536 501.511 28.0349 501.511ZM24.9534 508.847C24.9534 510.537 25.1072 511.86 25.4146 512.816L30.0683 503.61C29.5791 502.958 28.9013 502.633 28.0349 502.633C27.0706 502.633 26.316 503.145 25.771 504.171C25.2259 505.182 24.9534 506.741 24.9534 508.847ZM28.0349 515.061C29.0131 515.061 29.7748 514.555 30.3198 513.543C30.8648 512.518 31.1373 510.953 31.1373 508.847C31.1373 507.059 30.9627 505.674 30.6133 504.69L25.9596 513.98C26.4627 514.7 27.1545 515.061 28.0349 515.061Z" fill="url(#paint10_linear_175_198)" fill-opacity="0.6"/>
<path d="M29.2926 538.645H32.3741V539.747H24.3874V538.645H27.9511V526.966L24.5551 528.982L23.9682 528.046L28.1607 525.469H29.2926V538.645Z" fill="url(#paint11_linear_175_198)" fill-opacity="0.6"/>
<path d="M29.2926 562.396H32.3741V563.498H24.3874V562.396H27.9511V550.717L24.5551 552.733L23.9682 551.798L28.1607 549.221H29.2926V562.396Z" fill="url(#paint12_linear_175_198)" fill-opacity="0.6"/>
<path d="M66.9651 311.502C68.4604 311.502 69.5924 312.133 70.361 313.393C71.1436 314.64 71.5349 316.455 71.5349 318.838C71.5349 321.221 71.1436 323.043 70.361 324.304C69.5924 325.565 68.4604 326.195 66.9651 326.195C65.4838 326.195 64.3518 325.565 63.5692 324.304C62.7866 323.043 62.3953 321.221 62.3953 318.838C62.3953 316.469 62.7866 314.654 63.5692 313.393C64.3518 312.133 65.4838 311.502 66.9651 311.502ZM63.8836 318.838C63.8836 320.529 64.0374 321.852 64.3448 322.808L68.9985 313.601C68.5093 312.95 67.8315 312.624 66.9651 312.624C66.0008 312.624 65.2462 313.137 64.7012 314.162C64.1561 315.174 63.8836 316.732 63.8836 318.838ZM66.9651 325.052C67.9433 325.052 68.705 324.546 69.25 323.535C69.795 322.51 70.0675 320.944 70.0675 318.838C70.0675 317.051 69.8928 315.665 69.5435 314.682L64.8898 323.971C65.3929 324.692 66.0847 325.052 66.9651 325.052Z" fill="url(#paint13_linear_175_198)" fill-opacity="0.6"/>
<path d="M68.2228 348.637H71.3043V349.738H63.3176V348.637H66.8812V336.957L63.4853 338.973L62.8984 338.038L67.0909 335.461H68.2228V348.637Z" fill="url(#paint14_linear_175_198)" fill-opacity="0.6"/>
<path d="M66.9651 359.004C68.4604 359.004 69.5924 359.635 70.361 360.895C71.1436 362.142 71.5349 363.957 71.5349 366.34C71.5349 368.723 71.1436 370.545 70.361 371.806C69.5924 373.067 68.4604 373.697 66.9651 373.697C65.4838 373.697 64.3518 373.067 63.5692 371.806C62.7866 370.545 62.3953 368.723 62.3953 366.34C62.3953 363.971 62.7866 362.156 63.5692 360.895C64.3518 359.635 65.4838 359.004 66.9651 359.004ZM63.8836 366.34C63.8836 368.031 64.0374 369.354 64.3448 370.31L68.9985 361.103C68.5093 360.452 67.8315 360.126 66.9651 360.126C66.0008 360.126 65.2462 360.639 64.7012 361.664C64.1561 362.676 63.8836 364.234 63.8836 366.34ZM66.9651 372.554C67.9433 372.554 68.705 372.049 69.25 371.037C69.795 370.012 70.0675 368.446 70.0675 366.34C70.0675 364.553 69.8928 363.168 69.5435 362.184L64.8898 371.474C65.3929 372.194 66.0847 372.554 66.9651 372.554Z" fill="url(#paint15_linear_175_198)" fill-opacity="0.6"/>
<path d="M66.9651 382.755C68.4604 382.755 69.5924 383.386 70.361 384.646C71.1436 385.893 71.5349 387.708 71.5349 390.091C71.5349 392.474 71.1436 394.296 70.361 395.557C69.5924 396.818 68.4604 397.448 66.9651 397.448C65.4838 397.448 64.3518 396.818 63.5692 395.557C62.7866 394.296 62.3953 392.474 62.3953 390.091C62.3953 387.722 62.7866 385.907 63.5692 384.646C64.3518 383.386 65.4838 382.755 66.9651 382.755ZM63.8836 390.091C63.8836 391.782 64.0374 393.105 64.3448 394.061L68.9985 384.854C68.5093 384.203 67.8315 383.878 66.9651 383.878C66.0008 383.878 65.2462 384.39 64.7012 385.415C64.1561 386.427 63.8836 387.985 63.8836 390.091ZM66.9651 396.305C67.9433 396.305 68.705 395.8 69.25 394.788C69.795 393.763 70.0675 392.197 70.0675 390.091C70.0675 388.304 69.8928 386.919 69.5435 385.935L64.8898 395.225C65.3929 395.945 66.0847 396.305 66.9651 396.305Z" fill="url(#paint16_linear_175_198)" fill-opacity="0.6"/>
<path d="M68.2228 419.89H71.3043V420.992H63.3176V419.89H66.8812V408.21L63.4853 410.226L62.8984 409.291L67.0909 406.714H68.2228V419.89Z" fill="url(#paint17_linear_175_198)" fill-opacity="0.6"/>
<path d="M66.9651 430.257C68.4604 430.257 69.5924 430.888 70.361 432.149C71.1436 433.396 71.5349 435.211 71.5349 437.594C71.5349 439.977 71.1436 441.798 70.361 443.059C69.5924 444.32 68.4604 444.95 66.9651 444.95C65.4838 444.95 64.3518 444.32 63.5692 443.059C62.7866 441.798 62.3953 439.977 62.3953 437.594C62.3953 435.224 62.7866 433.409 63.5692 432.149C64.3518 430.888 65.4838 430.257 66.9651 430.257ZM63.8836 437.594C63.8836 439.284 64.0374 440.607 64.3448 441.563L68.9985 432.356C68.5093 431.705 67.8315 431.38 66.9651 431.38C66.0008 431.38 65.2462 431.892 64.7012 432.918C64.1561 433.929 63.8836 435.488 63.8836 437.594ZM66.9651 443.807C67.9433 443.807 68.705 443.302 69.25 442.29C69.795 441.265 70.0675 439.699 70.0675 437.594C70.0675 435.806 69.8928 434.421 69.5435 433.437L64.8898 442.727C65.3929 443.447 66.0847 443.807 66.9651 443.807Z" fill="url(#paint18_linear_175_198)" fill-opacity="0.6"/>
<path d="M68.2228 467.392H71.3043V468.494H63.3176V467.392H66.8812V455.713L63.4853 457.728L62.8984 456.793L67.0909 454.216H68.2228V467.392Z" fill="url(#paint19_linear_175_198)" fill-opacity="0.6"/>
<path d="M66.9651 477.76C68.4604 477.76 69.5924 478.39 70.361 479.651C71.1436 480.898 71.5349 482.713 71.5349 485.096C71.5349 487.479 71.1436 489.301 70.361 490.561C69.5924 491.822 68.4604 492.453 66.9651 492.453C65.4838 492.453 64.3518 491.822 63.5692 490.561C62.7866 489.301 62.3953 487.479 62.3953 485.096C62.3953 482.726 62.7866 480.911 63.5692 479.651C64.3518 478.39 65.4838 477.76 66.9651 477.76ZM63.8836 485.096C63.8836 486.786 64.0374 488.109 64.3448 489.065L68.9985 479.859C68.5093 479.207 67.8315 478.882 66.9651 478.882C66.0008 478.882 65.2462 479.394 64.7012 480.42C64.1561 481.431 63.8836 482.99 63.8836 485.096ZM66.9651 491.31C67.9433 491.31 68.705 490.804 69.25 489.792C69.795 488.767 70.0675 487.202 70.0675 485.096C70.0675 483.308 69.8928 481.923 69.5435 480.939L64.8898 490.229C65.3929 490.949 66.0847 491.31 66.9651 491.31Z" fill="url(#paint20_linear_175_198)" fill-opacity="0.6"/>
<path d="M66.9651 501.511C68.4604 501.511 69.5924 502.141 70.361 503.402C71.1436 504.649 71.5349 506.464 71.5349 508.847C71.5349 511.23 71.1436 513.052 70.361 514.312C69.5924 515.573 68.4604 516.204 66.9651 516.204C65.4838 516.204 64.3518 515.573 63.5692 514.312C62.7866 513.052 62.3953 511.23 62.3953 508.847C62.3953 506.478 62.7866 504.663 63.5692 503.402C64.3518 502.141 65.4838 501.511 66.9651 501.511ZM63.8836 508.847C63.8836 510.537 64.0374 511.86 64.3448 512.816L68.9985 503.61C68.5093 502.958 67.8315 502.633 66.9651 502.633C66.0008 502.633 65.2462 503.145 64.7012 504.171C64.1561 505.182 63.8836 506.741 63.8836 508.847ZM66.9651 515.061C67.9433 515.061 68.705 514.555 69.25 513.543C69.795 512.518 70.0675 510.953 70.0675 508.847C70.0675 507.059 69.8928 505.674 69.5435 504.69L64.8898 513.98C65.3929 514.7 66.0847 515.061 66.9651 515.061Z" fill="url(#paint21_linear_175_198)" fill-opacity="0.6"/>
<path d="M68.2228 538.645H71.3043V539.747H63.3176V538.645H66.8812V526.966L63.4853 528.982L62.8984 528.046L67.0909 525.469H68.2228V538.645Z" fill="url(#paint22_linear_175_198)" fill-opacity="0.6"/>
<path d="M66.9651 549.013C68.4604 549.013 69.5924 549.643 70.361 550.904C71.1436 552.151 71.5349 553.966 71.5349 556.349C71.5349 558.732 71.1436 560.554 70.361 561.815C69.5924 563.075 68.4604 563.706 66.9651 563.706C65.4838 563.706 64.3518 563.075 63.5692 561.815C62.7866 560.554 62.3953 558.732 62.3953 556.349C62.3953 553.98 62.7866 552.165 63.5692 550.904C64.3518 549.643 65.4838 549.013 66.9651 549.013ZM63.8836 556.349C63.8836 558.039 64.0374 559.362 64.3448 560.318L68.9985 551.112C68.5093 550.461 67.8315 550.135 66.9651 550.135C66.0008 550.135 65.2462 550.648 64.7012 551.673C64.1561 552.684 63.8836 554.243 63.8836 556.349ZM66.9651 562.563C67.9433 562.563 68.705 562.057 69.25 561.046C69.795 560.02 70.0675 558.455 70.0675 556.349C70.0675 554.562 69.8928 553.176 69.5435 552.192L64.8898 561.482C65.3929 562.202 66.0847 562.563 66.9651 562.563Z" fill="url(#paint23_linear_175_198)" fill-opacity="0.6"/>
<path d="M68.2228 586.148H71.3043V587.249H63.3176V586.148H66.8812V574.468L63.4853 576.484L62.8984 575.549L67.0909 572.972H68.2228V586.148Z" fill="url(#paint24_linear_175_198)" fill-opacity="0.6"/>
<path d="M68.2228 609.899H71.3043V611H63.3176V609.899H66.8812V598.219L63.4853 600.235L62.8984 599.3L67.0909 596.723H68.2228V609.899Z" fill="url(#paint25_linear_175_198)" fill-opacity="0.6"/>
<path d="M8.56981 335.253C10.0651 335.253 11.1971 335.884 11.9657 337.144C12.7483 338.391 13.1396 340.206 13.1396 342.589C13.1396 344.972 12.7483 346.794 11.9657 348.055C11.1971 349.316 10.0651 349.946 8.56981 349.946C7.08846 349.946 5.95649 349.316 5.1739 348.055C4.3913 346.794 4 344.972 4 342.589C4 340.22 4.3913 338.405 5.1739 337.144C5.95649 335.884 7.08846 335.253 8.56981 335.253ZM5.48833 342.589C5.48833 344.28 5.64206 345.603 5.9495 346.559L10.6032 337.352C10.114 336.701 9.43625 336.375 8.56981 336.375C7.60553 336.375 6.85089 336.888 6.30587 337.913C5.76084 338.925 5.48833 340.483 5.48833 342.589ZM8.56981 348.803C9.54805 348.803 10.3097 348.297 10.8547 347.286C11.3997 346.261 11.6722 344.695 11.6722 342.589C11.6722 340.802 11.4976 339.417 11.1482 338.433L6.49453 347.722C6.99763 348.443 7.68938 348.803 8.56981 348.803Z" fill="url(#paint26_linear_175_198)" fill-opacity="0.6"/>
<path d="M8.56981 359.004C10.0651 359.004 11.1971 359.635 11.9657 360.895C12.7483 362.142 13.1396 363.957 13.1396 366.34C13.1396 368.723 12.7483 370.545 11.9657 371.806C11.1971 373.067 10.0651 373.697 8.56981 373.697C7.08846 373.697 5.95649 373.067 5.1739 371.806C4.3913 370.545 4 368.723 4 366.34C4 363.971 4.3913 362.156 5.1739 360.895C5.95649 359.635 7.08846 359.004 8.56981 359.004ZM5.48833 366.34C5.48833 368.031 5.64206 369.354 5.9495 370.31L10.6032 361.103C10.114 360.452 9.43625 360.126 8.56981 360.126C7.60553 360.126 6.85089 360.639 6.30587 361.664C5.76084 362.676 5.48833 364.234 5.48833 366.34ZM8.56981 372.554C9.54805 372.554 10.3097 372.049 10.8547 371.037C11.3997 370.012 11.6722 368.446 11.6722 366.34C11.6722 364.553 11.4976 363.168 11.1482 362.184L6.49453 371.474C6.99763 372.194 7.68938 372.554 8.56981 372.554Z" fill="url(#paint27_linear_175_198)" fill-opacity="0.6"/>
<path d="M9.82755 396.139H12.909V397.24H4.92235V396.139H8.48596V384.459L5.09005 386.475L4.5031 385.54L8.69558 382.963H9.82755V396.139Z" fill="url(#paint28_linear_175_198)" fill-opacity="0.6"/>
<path d="M8.56981 406.506C10.0651 406.506 11.1971 407.137 11.9657 408.398C12.7483 409.644 13.1396 411.459 13.1396 413.842C13.1396 416.225 12.7483 418.047 11.9657 419.308C11.1971 420.569 10.0651 421.199 8.56981 421.199C7.08846 421.199 5.95649 420.569 5.1739 419.308C4.3913 418.047 4 416.225 4 413.842C4 411.473 4.3913 409.658 5.1739 408.398C5.95649 407.137 7.08846 406.506 8.56981 406.506ZM5.48833 413.842C5.48833 415.533 5.64206 416.856 5.9495 417.812L10.6032 408.605C10.114 407.954 9.43625 407.629 8.56981 407.629C7.60553 407.629 6.85089 408.141 6.30587 409.166C5.76084 410.178 5.48833 411.737 5.48833 413.842ZM8.56981 420.056C9.54805 420.056 10.3097 419.551 10.8547 418.539C11.3997 417.514 11.6722 415.948 11.6722 413.842C11.6722 412.055 11.4976 410.67 11.1482 409.686L6.49453 418.976C6.99763 419.696 7.68938 420.056 8.56981 420.056Z" fill="url(#paint29_linear_175_198)" fill-opacity="0.6"/>
<path d="M9.82755 443.641H12.909V444.743H4.92235V443.641H8.48596V431.962L5.09005 433.977L4.5031 433.042L8.69558 430.465H9.82755V443.641Z" fill="url(#paint30_linear_175_198)" fill-opacity="0.6"/>
<path d="M9.82755 467.392H12.909V468.494H4.92235V467.392H8.48596V455.713L5.09005 457.728L4.5031 456.793L8.69558 454.216H9.82755V467.392Z" fill="url(#paint31_linear_175_198)" fill-opacity="0.6"/>
<path d="M48.7577 301.135H51.8392V302.236H43.8525V301.135H47.4162V289.455L44.0202 291.471L43.4333 290.536L47.6258 287.959H48.7577V301.135Z" fill="url(#paint32_linear_175_198)" fill-opacity="0.6"/>
<path d="M47.5 311.502C48.9953 311.502 50.1273 312.133 50.8959 313.393C51.6785 314.64 52.0698 316.455 52.0698 318.838C52.0698 321.221 51.6785 323.043 50.8959 324.304C50.1273 325.565 48.9953 326.195 47.5 326.195C46.0187 326.195 44.8867 325.565 44.1041 324.304C43.3215 323.043 42.9302 321.221 42.9302 318.838C42.9302 316.469 43.3215 314.654 44.1041 313.393C44.8867 312.133 46.0187 311.502 47.5 311.502ZM44.4185 318.838C44.4185 320.529 44.5723 321.852 44.8797 322.808L49.5334 313.601C49.0442 312.95 48.3664 312.624 47.5 312.624C46.5357 312.624 45.7811 313.137 45.2361 314.162C44.691 315.174 44.4185 316.732 44.4185 318.838ZM47.5 325.052C48.4782 325.052 49.2399 324.546 49.7849 323.535C50.3299 322.51 50.6024 320.944 50.6024 318.838C50.6024 317.051 50.4277 315.665 50.0784 314.682L45.4247 323.971C45.9278 324.692 46.6196 325.052 47.5 325.052Z" fill="url(#paint33_linear_175_198)" fill-opacity="0.6"/>
<path d="M48.7577 348.637H51.8392V349.738H43.8525V348.637H47.4162V336.957L44.0202 338.973L43.4333 338.038L47.6258 335.461H48.7577V348.637Z" fill="url(#paint34_linear_175_198)" fill-opacity="0.6"/>
<path d="M48.7577 372.388H51.8392V373.489H43.8525V372.388H47.4162V360.708L44.0202 362.724L43.4333 361.789L47.6258 359.212H48.7577V372.388Z" fill="url(#paint35_linear_175_198)" fill-opacity="0.6"/>
<path d="M47.5 382.755C48.9953 382.755 50.1273 383.386 50.8959 384.646C51.6785 385.893 52.0698 387.708 52.0698 390.091C52.0698 392.474 51.6785 394.296 50.8959 395.557C50.1273 396.818 48.9953 397.448 47.5 397.448C46.0187 397.448 44.8867 396.818 44.1041 395.557C43.3215 394.296 42.9302 392.474 42.9302 390.091C42.9302 387.722 43.3215 385.907 44.1041 384.646C44.8867 383.386 46.0187 382.755 47.5 382.755ZM44.4185 390.091C44.4185 391.782 44.5723 393.105 44.8797 394.061L49.5334 384.854C49.0442 384.203 48.3664 383.878 47.5 383.878C46.5357 383.878 45.7811 384.39 45.2361 385.415C44.691 386.427 44.4185 387.985 44.4185 390.091ZM47.5 396.305C48.4782 396.305 49.2399 395.8 49.7849 394.788C50.3299 393.763 50.6024 392.197 50.6024 390.091C50.6024 388.304 50.4277 386.919 50.0784 385.935L45.4247 395.225C45.9278 395.945 46.6196 396.305 47.5 396.305Z" fill="url(#paint36_linear_175_198)" fill-opacity="0.6"/>
<path d="M48.7577 419.89H51.8392V420.992H43.8525V419.89H47.4162V408.21L44.0202 410.226L43.4333 409.291L47.6258 406.714H48.7577V419.89Z" fill="url(#paint37_linear_175_198)" fill-opacity="0.6"/>
<path d="M48.7577 443.641H51.8392V444.743H43.8525V443.641H47.4162V431.962L44.0202 433.977L43.4333 433.042L47.6258 430.465H48.7577V443.641Z" fill="url(#paint38_linear_175_198)" fill-opacity="0.6"/>
<path d="M47.5 454.008C48.9953 454.008 50.1273 454.639 50.8959 455.9C51.6785 457.147 52.0698 458.962 52.0698 461.345C52.0698 463.728 51.6785 465.549 50.8959 466.81C50.1273 468.071 48.9953 468.701 47.5 468.701C46.0187 468.701 44.8867 468.071 44.1041 466.81C43.3215 465.549 42.9302 463.728 42.9302 461.345C42.9302 458.975 43.3215 457.16 44.1041 455.9C44.8867 454.639 46.0187 454.008 47.5 454.008ZM44.4185 461.345C44.4185 463.035 44.5723 464.358 44.8797 465.314L49.5334 456.107C49.0442 455.456 48.3664 455.131 47.5 455.131C46.5357 455.131 45.7811 455.643 45.2361 456.669C44.691 457.68 44.4185 459.239 44.4185 461.345ZM47.5 467.558C48.4782 467.558 49.2399 467.053 49.7849 466.041C50.3299 465.016 50.6024 463.451 50.6024 461.345C50.6024 459.557 50.4277 458.172 50.0784 457.188L45.4247 466.478C45.9278 467.198 46.6196 467.558 47.5 467.558Z" fill="url(#paint39_linear_175_198)" fill-opacity="0.6"/>
<path d="M48.7577 491.143H51.8392V492.245H43.8525V491.143H47.4162V479.464L44.0202 481.48L43.4333 480.544L47.6258 477.967H48.7577V491.143Z" fill="url(#paint40_linear_175_198)" fill-opacity="0.6"/>
<path d="M47.5 501.511C48.9953 501.511 50.1273 502.141 50.8959 503.402C51.6785 504.649 52.0698 506.464 52.0698 508.847C52.0698 511.23 51.6785 513.052 50.8959 514.312C50.1273 515.573 48.9953 516.204 47.5 516.204C46.0187 516.204 44.8867 515.573 44.1041 514.312C43.3215 513.052 42.9302 511.23 42.9302 508.847C42.9302 506.478 43.3215 504.663 44.1041 503.402C44.8867 502.141 46.0187 501.511 47.5 501.511ZM44.4185 508.847C44.4185 510.537 44.5723 511.86 44.8797 512.816L49.5334 503.61C49.0442 502.958 48.3664 502.633 47.5 502.633C46.5357 502.633 45.7811 503.145 45.2361 504.171C44.691 505.182 44.4185 506.741 44.4185 508.847ZM47.5 515.061C48.4782 515.061 49.2399 514.555 49.7849 513.543C50.3299 512.518 50.6024 510.953 50.6024 508.847C50.6024 507.059 50.4277 505.674 50.0784 504.69L45.4247 513.98C45.9278 514.7 46.6196 515.061 47.5 515.061Z" fill="url(#paint41_linear_175_198)" fill-opacity="0.6"/>
<path d="M86.4302 287.751C87.9255 287.751 89.0575 288.381 89.8261 289.642C90.6087 290.889 91 292.704 91 295.087C91 297.47 90.6087 299.292 89.8261 300.553C89.0575 301.814 87.9255 302.444 86.4302 302.444C84.9489 302.444 83.8169 301.814 83.0343 300.553C82.2517 299.292 81.8604 297.47 81.8604 295.087C81.8604 292.718 82.2517 290.903 83.0343 289.642C83.8169 288.381 84.9489 287.751 86.4302 287.751ZM83.3487 295.087C83.3487 296.777 83.5024 298.101 83.8099 299.057L88.4636 289.85C87.9744 289.199 87.2966 288.873 86.4302 288.873C85.4659 288.873 84.7113 289.386 84.1663 290.411C83.6212 291.423 83.3487 292.981 83.3487 295.087ZM86.4302 301.301C87.4084 301.301 88.1701 300.795 88.7151 299.784C89.2601 298.759 89.5326 297.193 89.5326 295.087C89.5326 293.3 89.3579 291.914 89.0086 290.931L84.3549 300.22C84.858 300.941 85.5498 301.301 86.4302 301.301Z" fill="url(#paint42_linear_175_198)" fill-opacity="0.6"/>
<path d="M87.6879 324.886H90.7694V325.987H82.7827V324.886H86.3463V313.206L82.9504 315.222L82.3635 314.287L86.556 311.71H87.6879V324.886Z" fill="url(#paint43_linear_175_198)" fill-opacity="0.6"/>
<path d="M87.6879 348.637H90.7694V349.738H82.7827V348.637H86.3463V336.957L82.9504 338.973L82.3635 338.038L86.556 335.461H87.6879V348.637Z" fill="url(#paint44_linear_175_198)" fill-opacity="0.6"/>
<path d="M86.4302 359.004C87.9255 359.004 89.0575 359.635 89.8261 360.895C90.6087 362.142 91 363.957 91 366.34C91 368.723 90.6087 370.545 89.8261 371.806C89.0575 373.067 87.9255 373.697 86.4302 373.697C84.9489 373.697 83.8169 373.067 83.0343 371.806C82.2517 370.545 81.8604 368.723 81.8604 366.34C81.8604 363.971 82.2517 362.156 83.0343 360.895C83.8169 359.635 84.9489 359.004 86.4302 359.004ZM83.3487 366.34C83.3487 368.031 83.5024 369.354 83.8099 370.31L88.4636 361.103C87.9744 360.452 87.2966 360.126 86.4302 360.126C85.4659 360.126 84.7113 360.639 84.1663 361.664C83.6212 362.676 83.3487 364.234 83.3487 366.34ZM86.4302 372.554C87.4084 372.554 88.1701 372.049 88.7151 371.037C89.2601 370.012 89.5326 368.446 89.5326 366.34C89.5326 364.553 89.3579 363.168 89.0086 362.184L84.3549 371.474C84.858 372.194 85.5498 372.554 86.4302 372.554Z" fill="url(#paint45_linear_175_198)" fill-opacity="0.6"/>
<path d="M86.4302 382.755C87.9255 382.755 89.0575 383.386 89.8261 384.646C90.6087 385.893 91 387.708 91 390.091C91 392.474 90.6087 394.296 89.8261 395.557C89.0575 396.818 87.9255 397.448 86.4302 397.448C84.9489 397.448 83.8169 396.818 83.0343 395.557C82.2517 394.296 81.8604 392.474 81.8604 390.091C81.8604 387.722 82.2517 385.907 83.0343 384.646C83.8169 383.386 84.9489 382.755 86.4302 382.755ZM83.3487 390.091C83.3487 391.782 83.5024 393.105 83.8099 394.061L88.4636 384.854C87.9744 384.203 87.2966 383.878 86.4302 383.878C85.4659 383.878 84.7113 384.39 84.1663 385.415C83.6212 386.427 83.3487 387.985 83.3487 390.091ZM86.4302 396.305C87.4084 396.305 88.1701 395.8 88.7151 394.788C89.2601 393.763 89.5326 392.197 89.5326 390.091C89.5326 388.304 89.3579 386.919 89.0086 385.935L84.3549 395.225C84.858 395.945 85.5498 396.305 86.4302 396.305Z" fill="url(#paint46_linear_175_198)" fill-opacity="0.6"/>
<g opacity="0.6">
<path d="M914.93 -36C916.356 -36 917.436 -35.395 918.17 -34.1851C918.916 -32.9885 919.29 -31.2468 919.29 -28.9599C919.29 -26.673 918.916 -24.9246 918.17 -23.7147C917.436 -22.5048 916.356 -21.8998 914.93 -21.8998C913.517 -21.8998 912.437 -22.5048 911.69 -23.7147C910.943 -24.9246 910.57 -26.673 910.57 -28.9599C910.57 -31.2335 910.943 -32.9752 911.69 -34.1851C912.437 -35.395 913.517 -36 914.93 -36ZM911.99 -28.9599C911.99 -27.3378 912.137 -26.068 912.43 -25.1506L916.87 -33.9857C916.403 -34.6106 915.756 -34.923 914.93 -34.923C914.01 -34.923 913.29 -34.4311 912.77 -33.4472C912.25 -32.4766 911.99 -30.9808 911.99 -28.9599ZM914.93 -22.9967C915.863 -22.9967 916.59 -23.482 917.11 -24.4526C917.63 -25.4365 917.89 -26.9389 917.89 -28.9599C917.89 -30.675 917.723 -32.0046 917.39 -32.9486L912.95 -24.0338C913.43 -23.3424 914.09 -22.9967 914.93 -22.9967Z" fill="url(#paint47_linear_175_198)"/>
<path d="M916.13 -0.363452H919.07V0.693562H911.45V-0.363452H914.85V-11.5718L911.61 -9.63727L911.05 -10.5347L915.05 -13.0078H916.13V-0.363452Z" fill="url(#paint48_linear_175_198)"/>
<path d="M914.93 9.58561C916.356 9.58561 917.436 10.1906 918.17 11.4005C918.916 12.5971 919.29 14.3389 919.29 16.6257C919.29 18.9126 918.916 20.661 918.17 21.8709C917.436 23.0808 916.356 23.6858 914.93 23.6858C913.517 23.6858 912.437 23.0808 911.69 21.8709C910.943 20.661 910.57 18.9126 910.57 16.6257C910.57 14.3522 910.943 12.6104 911.69 11.4005C912.437 10.1906 913.517 9.58561 914.93 9.58561ZM911.99 16.6257C911.99 18.2478 912.137 19.5176 912.43 20.435L916.87 11.5999C916.403 10.975 915.756 10.6626 914.93 10.6626C914.01 10.6626 913.29 11.1545 912.77 12.1384C912.25 13.109 911.99 14.6048 911.99 16.6257ZM914.93 22.5889C915.863 22.5889 916.59 22.1036 917.11 21.133C917.63 20.1491 917.89 18.6467 917.89 16.6257C917.89 14.9106 917.723 13.581 917.39 12.637L912.95 21.5518C913.43 22.2432 914.09 22.5889 914.93 22.5889Z" fill="url(#paint49_linear_175_198)"/>
<path d="M916.13 45.2221H919.07V46.2792H911.45V45.2221H914.85V34.0138L911.61 35.9483L911.05 35.0509L915.05 32.5778H916.13V45.2221Z" fill="url(#paint50_linear_175_198)"/>
<path d="M916.13 68.015H919.07V69.072H911.45V68.015H914.85V56.8066L911.61 58.7411L911.05 57.8437L915.05 55.3706H916.13V68.015Z" fill="url(#paint51_linear_175_198)"/>
<path d="M914.93 77.964C916.356 77.964 917.436 78.569 918.17 79.7789C918.916 80.9755 919.29 82.7173 919.29 85.0041C919.29 87.291 918.916 89.0394 918.17 90.2493C917.436 91.4593 916.356 92.0642 914.93 92.0642C913.517 92.0642 912.437 91.4593 911.69 90.2493C910.943 89.0394 910.57 87.291 910.57 85.0041C910.57 82.7306 910.943 80.9888 911.69 79.7789C912.437 78.569 913.517 77.964 914.93 77.964ZM911.99 85.0041C911.99 86.6262 912.137 87.896 912.43 88.8134L916.87 79.9783C916.403 79.3534 915.756 79.041 914.93 79.041C914.01 79.041 913.29 79.5329 912.77 80.5168C912.25 81.4874 911.99 82.9832 911.99 85.0041ZM914.93 90.9673C915.863 90.9673 916.59 90.482 917.11 89.5114C917.63 88.5275 917.89 87.0251 917.89 85.0041C917.89 83.289 917.723 81.9594 917.39 81.0154L912.95 89.9302C913.43 90.6216 914.09 90.9673 914.93 90.9673Z" fill="url(#paint52_linear_175_198)"/>
<path d="M916.13 113.601H919.07V114.658H911.45V113.601H914.85V102.392L911.61 104.327L911.05 103.429L915.05 100.956H916.13V113.601Z" fill="url(#paint53_linear_175_198)"/>
<path d="M914.93 123.55C916.356 123.55 917.436 124.155 918.17 125.365C918.916 126.561 919.29 128.303 919.29 130.59C919.29 132.877 918.916 134.625 918.17 135.835C917.436 137.045 916.356 137.65 914.93 137.65C913.517 137.65 912.437 137.045 911.69 135.835C910.943 134.625 910.57 132.877 910.57 130.59C910.57 128.316 910.943 126.574 911.69 125.365C912.437 124.155 913.517 123.55 914.93 123.55ZM911.99 130.59C911.99 132.212 912.137 133.482 912.43 134.399L916.87 125.564C916.403 124.939 915.756 124.627 914.93 124.627C914.01 124.627 913.29 125.119 912.77 126.102C912.25 127.073 911.99 128.569 911.99 130.59ZM914.93 136.553C915.863 136.553 916.59 136.068 917.11 135.097C917.63 134.113 917.89 132.611 917.89 130.59C917.89 128.875 917.723 127.545 917.39 126.601L912.95 135.516C913.43 136.207 914.09 136.553 914.93 136.553Z" fill="url(#paint54_linear_175_198)"/>
<path d="M914.93 146.342C916.356 146.342 917.436 146.947 918.17 148.157C918.916 149.354 919.29 151.096 919.29 153.383C919.29 155.669 918.916 157.418 918.17 158.628C917.436 159.838 916.356 160.443 914.93 160.443C913.517 160.443 912.437 159.838 911.69 158.628C910.943 157.418 910.57 155.669 910.57 153.383C910.57 151.109 910.943 149.367 911.69 148.157C912.437 146.947 913.517 146.342 914.93 146.342ZM911.99 153.383C911.99 155.005 912.137 156.274 912.43 157.192L916.87 148.357C916.403 147.732 915.756 147.419 914.93 147.419C914.01 147.419 913.29 147.911 912.77 148.895C912.25 149.866 911.99 151.362 911.99 153.383ZM914.93 159.346C915.863 159.346 916.59 158.86 917.11 157.89C917.63 156.906 917.89 155.404 917.89 153.383C917.89 151.667 917.723 150.338 917.39 149.394L912.95 158.309C913.43 159 914.09 159.346 914.93 159.346Z" fill="url(#paint55_linear_175_198)"/>
<path d="M916.13 181.979H919.07V183.036H911.45V181.979H914.85V170.771L911.61 172.705L911.05 171.808L915.05 169.335H916.13V181.979Z" fill="url(#paint56_linear_175_198)"/>
<path d="M914.93 191.928C916.356 191.928 917.436 192.533 918.17 193.743C918.916 194.94 919.29 196.681 919.29 198.968C919.29 201.255 918.916 203.003 918.17 204.213C917.436 205.423 916.356 206.028 914.93 206.028C913.517 206.028 912.437 205.423 911.69 204.213C910.943 203.003 910.57 201.255 910.57 198.968C910.57 196.695 910.943 194.953 911.69 193.743C912.437 192.533 913.517 191.928 914.93 191.928ZM911.99 198.968C911.99 200.59 912.137 201.86 912.43 202.777L916.87 193.942C916.403 193.317 915.756 193.005 914.93 193.005C914.01 193.005 913.29 193.497 912.77 194.481C912.25 195.451 911.99 196.947 911.99 198.968ZM914.93 204.931C915.863 204.931 916.59 204.446 917.11 203.475C917.63 202.492 917.89 200.989 917.89 198.968C917.89 197.253 917.723 195.923 917.39 194.979L912.95 203.894C913.43 204.586 914.09 204.931 914.93 204.931Z" fill="url(#paint57_linear_175_198)"/>
<path d="M916.13 227.565H919.07V228.622H911.45V227.565H914.85V216.356L911.61 218.291L911.05 217.393L915.05 214.92H916.13V227.565Z" fill="url(#paint58_linear_175_198)"/>
<path d="M916.13 250.357H919.07V251.414H911.45V250.357H914.85V239.149L911.61 241.084L911.05 240.186L915.05 237.713H916.13V250.357Z" fill="url(#paint59_linear_175_198)"/>
<path d="M952.07 9.58561C953.497 9.58561 954.577 10.1906 955.31 11.4005C956.057 12.5971 956.43 14.3389 956.43 16.6257C956.43 18.9126 956.057 20.661 955.31 21.8709C954.577 23.0808 953.497 23.6858 952.07 23.6858C950.657 23.6858 949.577 23.0808 948.83 21.8709C948.084 20.661 947.71 18.9126 947.71 16.6257C947.71 14.3522 948.084 12.6104 948.83 11.4005C949.577 10.1906 950.657 9.58561 952.07 9.58561ZM949.13 16.6257C949.13 18.2478 949.277 19.5176 949.57 20.435L954.01 11.5999C953.543 10.975 952.897 10.6626 952.07 10.6626C951.15 10.6626 950.43 11.1545 949.91 12.1384C949.39 13.109 949.13 14.6048 949.13 16.6257ZM952.07 22.5889C953.003 22.5889 953.73 22.1036 954.25 21.133C954.77 20.1491 955.03 18.6467 955.03 16.6257C955.03 14.9106 954.863 13.581 954.53 12.637L950.09 21.5518C950.57 22.2432 951.23 22.5889 952.07 22.5889Z" fill="url(#paint60_linear_175_198)"/>
<path d="M953.27 45.2221H956.21V46.2792H948.59V45.2221H951.99V34.0138L948.75 35.9483L948.19 35.0509L952.19 32.5778H953.27V45.2221Z" fill="url(#paint61_linear_175_198)"/>
<path d="M952.07 55.1712C953.497 55.1712 954.577 55.7762 955.31 56.9861C956.057 58.1827 956.43 59.9245 956.43 62.2113C956.43 64.4982 956.057 66.2466 955.31 67.4565C954.577 68.6664 953.497 69.2714 952.07 69.2714C950.657 69.2714 949.577 68.6664 948.83 67.4565C948.084 66.2466 947.71 64.4982 947.71 62.2113C947.71 59.9378 948.084 58.196 948.83 56.9861C949.577 55.7762 950.657 55.1712 952.07 55.1712ZM949.13 62.2113C949.13 63.8334 949.277 65.1032 949.57 66.0206L954.01 57.1855C953.543 56.5606 952.897 56.2482 952.07 56.2482C951.15 56.2482 950.43 56.7401 949.91 57.724C949.39 58.6946 949.13 60.1904 949.13 62.2113ZM952.07 68.1745C953.003 68.1745 953.73 67.6892 954.25 66.7186C954.77 65.7347 955.03 64.2323 955.03 62.2113C955.03 60.4962 954.863 59.1666 954.53 58.2226L950.09 67.1374C950.57 67.8288 951.23 68.1745 952.07 68.1745Z" fill="url(#paint62_linear_175_198)"/>
<path d="M952.07 77.964C953.497 77.964 954.577 78.569 955.31 79.7789C956.057 80.9755 956.43 82.7173 956.43 85.0041C956.43 87.291 956.057 89.0394 955.31 90.2493C954.577 91.4593 953.497 92.0642 952.07 92.0642C950.657 92.0642 949.577 91.4593 948.83 90.2493C948.084 89.0394 947.71 87.291 947.71 85.0041C947.71 82.7306 948.084 80.9888 948.83 79.7789C949.577 78.569 950.657 77.964 952.07 77.964ZM949.13 85.0041C949.13 86.6262 949.277 87.896 949.57 88.8134L954.01 79.9783C953.543 79.3534 952.897 79.041 952.07 79.041C951.15 79.041 950.43 79.5329 949.91 80.5168C949.39 81.4874 949.13 82.9832 949.13 85.0041ZM952.07 90.9673C953.003 90.9673 953.73 90.482 954.25 89.5114C954.77 88.5275 955.03 87.0251 955.03 85.0041C955.03 83.289 954.863 81.9594 954.53 81.0154L950.09 89.9302C950.57 90.6216 951.23 90.9673 952.07 90.9673Z" fill="url(#paint63_linear_175_198)"/>
<path d="M953.27 113.601H956.21V114.658H948.59V113.601H951.99V102.392L948.75 104.327L948.19 103.429L952.19 100.956H953.27V113.601Z" fill="url(#paint64_linear_175_198)"/>
<path d="M952.07 123.55C953.497 123.55 954.577 124.155 955.31 125.365C956.057 126.561 956.43 128.303 956.43 130.59C956.43 132.877 956.057 134.625 955.31 135.835C954.577 137.045 953.497 137.65 952.07 137.65C950.657 137.65 949.577 137.045 948.83 135.835C948.084 134.625 947.71 132.877 947.71 130.59C947.71 128.316 948.084 126.574 948.83 125.365C949.577 124.155 950.657 123.55 952.07 123.55ZM949.13 130.59C949.13 132.212 949.277 133.482 949.57 134.399L954.01 125.564C953.543 124.939 952.897 124.627 952.07 124.627C951.15 124.627 950.43 125.119 949.91 126.102C949.39 127.073 949.13 128.569 949.13 130.59ZM952.07 136.553C953.003 136.553 953.73 136.068 954.25 135.097C954.77 134.113 955.03 132.611 955.03 130.59C955.03 128.875 954.863 127.545 954.53 126.601L950.09 135.516C950.57 136.207 951.23 136.553 952.07 136.553Z" fill="url(#paint65_linear_175_198)"/>
<path d="M953.27 159.186H956.21V160.243H948.59V159.186H951.99V147.978L948.75 149.912L948.19 149.015L952.19 146.542H953.27V159.186Z" fill="url(#paint66_linear_175_198)"/>
<path d="M952.07 169.135C953.497 169.135 954.577 169.74 955.31 170.95C956.057 172.147 956.43 173.888 956.43 176.175C956.43 178.462 956.057 180.211 955.31 181.421C954.577 182.63 953.497 183.235 952.07 183.235C950.657 183.235 949.577 182.63 948.83 181.421C948.084 180.211 947.71 178.462 947.71 176.175C947.71 173.902 948.084 172.16 948.83 170.95C949.577 169.74 950.657 169.135 952.07 169.135ZM949.13 176.175C949.13 177.797 949.277 179.067 949.57 179.985L954.01 171.15C953.543 170.525 952.897 170.212 952.07 170.212C951.15 170.212 950.43 170.704 949.91 171.688C949.39 172.659 949.13 174.154 949.13 176.175ZM952.07 182.139C953.003 182.139 953.73 181.653 954.25 180.683C954.77 179.699 955.03 178.196 955.03 176.175C955.03 174.46 954.863 173.131 954.53 172.187L950.09 181.101C950.57 181.793 951.23 182.139 952.07 182.139Z" fill="url(#paint67_linear_175_198)"/>
<path d="M952.07 191.928C953.497 191.928 954.577 192.533 955.31 193.743C956.057 194.94 956.43 196.681 956.43 198.968C956.43 201.255 956.057 203.003 955.31 204.213C954.577 205.423 953.497 206.028 952.07 206.028C950.657 206.028 949.577 205.423 948.83 204.213C948.084 203.003 947.71 201.255 947.71 198.968C947.71 196.695 948.084 194.953 948.83 193.743C949.577 192.533 950.657 191.928 952.07 191.928ZM949.13 198.968C949.13 200.59 949.277 201.86 949.57 202.777L954.01 193.942C953.543 193.317 952.897 193.005 952.07 193.005C951.15 193.005 950.43 193.497 949.91 194.481C949.39 195.451 949.13 196.947 949.13 198.968ZM952.07 204.931C953.003 204.931 953.73 204.446 954.25 203.475C954.77 202.492 955.03 200.989 955.03 198.968C955.03 197.253 954.863 195.923 954.53 194.979L950.09 203.894C950.57 204.586 951.23 204.931 952.07 204.931Z" fill="url(#paint68_linear_175_198)"/>
<path d="M953.27 227.565H956.21V228.622H948.59V227.565H951.99V216.356L948.75 218.291L948.19 217.393L952.19 214.92H953.27V227.565Z" fill="url(#paint69_linear_175_198)"/>
<path d="M952.07 237.514C953.497 237.514 954.577 238.119 955.31 239.329C956.057 240.525 956.43 242.267 956.43 244.554C956.43 246.841 956.057 248.589 955.31 249.799C954.577 251.009 953.497 251.614 952.07 251.614C950.657 251.614 949.577 251.009 948.83 249.799C948.084 248.589 947.71 246.841 947.71 244.554C947.71 242.28 948.084 240.538 948.83 239.329C949.577 238.119 950.657 237.514 952.07 237.514ZM949.13 244.554C949.13 246.176 949.277 247.446 949.57 248.363L954.01 239.528C953.543 238.903 952.897 238.591 952.07 238.591C951.15 238.591 950.43 239.083 949.91 240.066C949.39 241.037 949.13 242.533 949.13 244.554ZM952.07 250.517C953.003 250.517 953.73 250.032 954.25 249.061C954.77 248.077 955.03 246.575 955.03 244.554C955.03 242.839 954.863 241.509 954.53 240.565L950.09 249.48C950.57 250.171 951.23 250.517 952.07 250.517Z" fill="url(#paint70_linear_175_198)"/>
<path d="M953.27 273.15H956.21V274.207H948.59V273.15H951.99V261.942L948.75 263.876L948.19 262.979L952.19 260.506H953.27V273.15Z" fill="url(#paint71_linear_175_198)"/>
<path d="M953.27 295.943H956.21V297H948.59V295.943H951.99V284.735L948.75 286.669L948.19 285.772L952.19 283.299H953.27V295.943Z" fill="url(#paint72_linear_175_198)"/>
<path d="M896.36 32.3784C897.786 32.3784 898.866 32.9834 899.599 34.1933C900.346 35.3899 900.719 37.1317 900.719 39.4185C900.719 41.7054 900.346 43.4538 899.599 44.6637C898.866 45.8736 897.786 46.4786 896.36 46.4786C894.946 46.4786 893.867 45.8736 893.12 44.6637C892.373 43.4538 892 41.7054 892 39.4185C892 37.145 892.373 35.4032 893.12 34.1933C893.867 32.9834 894.946 32.3784 896.36 32.3784ZM893.42 39.4185C893.42 41.0406 893.567 42.3104 893.86 43.2278L898.3 34.3927C897.833 33.7678 897.186 33.4554 896.36 33.4554C895.44 33.4554 894.72 33.9473 894.2 34.9312C893.68 35.9018 893.42 37.3976 893.42 39.4185ZM896.36 45.3817C897.293 45.3817 898.02 44.8964 898.54 43.9258C899.06 42.9419 899.319 41.4395 899.319 39.4185C899.319 37.7034 899.153 36.3738 898.82 35.4298L894.38 44.3446C894.86 45.036 895.52 45.3817 896.36 45.3817Z" fill="url(#paint73_linear_175_198)"/>
<path d="M896.36 55.1712C897.786 55.1712 898.866 55.7762 899.599 56.9861C900.346 58.1827 900.719 59.9245 900.719 62.2113C900.719 64.4982 900.346 66.2466 899.599 67.4565C898.866 68.6664 897.786 69.2714 896.36 69.2714C894.946 69.2714 893.867 68.6664 893.12 67.4565C892.373 66.2466 892 64.4982 892 62.2113C892 59.9378 892.373 58.196 893.12 56.9861C893.867 55.7762 894.946 55.1712 896.36 55.1712ZM893.42 62.2113C893.42 63.8334 893.567 65.1032 893.86 66.0206L898.3 57.1855C897.833 56.5606 897.186 56.2482 896.36 56.2482C895.44 56.2482 894.72 56.7401 894.2 57.724C893.68 58.6946 893.42 60.1904 893.42 62.2113ZM896.36 68.1745C897.293 68.1745 898.02 67.6892 898.54 66.7186C899.06 65.7347 899.319 64.2323 899.319 62.2113C899.319 60.4962 899.153 59.1666 898.82 58.2226L894.38 67.1374C894.86 67.8288 895.52 68.1745 896.36 68.1745Z" fill="url(#paint74_linear_175_198)"/>
<path d="M897.56 90.8078H900.499V91.8648H892.88V90.8078H896.28V79.5994L893.04 81.5339L892.48 80.6365L896.48 78.1635H897.56V90.8078Z" fill="url(#paint75_linear_175_198)"/>
<path d="M896.36 100.757C897.786 100.757 898.866 101.362 899.599 102.572C900.346 103.768 900.719 105.51 900.719 107.797C900.719 110.084 900.346 111.832 899.599 113.042C898.866 114.252 897.786 114.857 896.36 114.857C894.946 114.857 893.867 114.252 893.12 113.042C892.373 111.832 892 110.084 892 107.797C892 105.523 892.373 103.782 893.12 102.572C893.867 101.362 894.946 100.757 896.36 100.757ZM893.42 107.797C893.42 109.419 893.567 110.689 893.86 111.606L898.3 102.771C897.833 102.146 897.186 101.834 896.36 101.834C895.44 101.834 894.72 102.326 894.2 103.31C893.68 104.28 893.42 105.776 893.42 107.797ZM896.36 113.76C897.293 113.76 898.02 113.275 898.54 112.304C899.06 111.32 899.319 109.818 899.319 107.797C899.319 106.082 899.153 104.752 898.82 103.808L894.38 112.723C894.86 113.414 895.52 113.76 896.36 113.76Z" fill="url(#paint76_linear_175_198)"/>
<path d="M897.56 136.393H900.499V137.45H892.88V136.393H896.28V125.185L893.04 127.12L892.48 126.222L896.48 123.749H897.56V136.393Z" fill="url(#paint77_linear_175_198)"/>
<path d="M897.56 159.186H900.499V160.243H892.88V159.186H896.28V147.978L893.04 149.912L892.48 149.015L896.48 146.542H897.56V159.186Z" fill="url(#paint78_linear_175_198)"/>
<path d="M934.7 -0.363452H937.64V0.693562H930.02V-0.363452H933.42V-11.5718L930.18 -9.63727L929.62 -10.5347L933.62 -13.0078H934.7V-0.363452Z" fill="url(#paint79_linear_175_198)"/>
<path d="M933.5 9.58561C934.927 9.58561 936.006 10.1906 936.74 11.4005C937.486 12.5971 937.86 14.3389 937.86 16.6257C937.86 18.9126 937.486 20.661 936.74 21.8709C936.006 23.0808 934.927 23.6858 933.5 23.6858C932.087 23.6858 931.007 23.0808 930.26 21.8709C929.514 20.661 929.14 18.9126 929.14 16.6257C929.14 14.3522 929.514 12.6104 930.26 11.4005C931.007 10.1906 932.087 9.58561 933.5 9.58561ZM930.56 16.6257C930.56 18.2478 930.707 19.5176 931 20.435L935.44 11.5999C934.973 10.975 934.327 10.6626 933.5 10.6626C932.58 10.6626 931.86 11.1545 931.34 12.1384C930.82 13.109 930.56 14.6048 930.56 16.6257ZM933.5 22.5889C934.433 22.5889 935.16 22.1036 935.68 21.133C936.2 20.1491 936.46 18.6467 936.46 16.6257C936.46 14.9106 936.293 13.581 935.96 12.637L931.52 21.5518C932 22.2432 932.66 22.5889 933.5 22.5889Z" fill="url(#paint80_linear_175_198)"/>
<path d="M934.7 45.2221H937.64V46.2792H930.02V45.2221H933.42V34.0138L930.18 35.9483L929.62 35.0509L933.62 32.5778H934.7V45.2221Z" fill="url(#paint81_linear_175_198)"/>
<path d="M934.7 68.015H937.64V69.072H930.02V68.015H933.42V56.8066L930.18 58.7411L929.62 57.8437L933.62 55.3706H934.7V68.015Z" fill="url(#paint82_linear_175_198)"/>
<path d="M933.5 77.964C934.927 77.964 936.006 78.569 936.74 79.7789C937.486 80.9755 937.86 82.7173 937.86 85.0041C937.86 87.291 937.486 89.0394 936.74 90.2493C936.006 91.4593 934.927 92.0642 933.5 92.0642C932.087 92.0642 931.007 91.4593 930.26 90.2493C929.514 89.0394 929.14 87.291 929.14 85.0041C929.14 82.7306 929.514 80.9888 930.26 79.7789C931.007 78.569 932.087 77.964 933.5 77.964ZM930.56 85.0041C930.56 86.6262 930.707 87.896 931 88.8134L935.44 79.9783C934.973 79.3534 934.327 79.041 933.5 79.041C932.58 79.041 931.86 79.5329 931.34 80.5168C930.82 81.4874 930.56 82.9832 930.56 85.0041ZM933.5 90.9673C934.433 90.9673 935.16 90.482 935.68 89.5114C936.2 88.5275 936.46 87.0251 936.46 85.0041C936.46 83.289 936.293 81.9594 935.96 81.0154L931.52 89.9302C932 90.6216 932.66 90.9673 933.5 90.9673Z" fill="url(#paint83_linear_175_198)"/>
<path d="M934.7 113.601H937.64V114.658H930.02V113.601H933.42V102.392L930.18 104.327L929.62 103.429L933.62 100.956H934.7V113.601Z" fill="url(#paint84_linear_175_198)"/>
<path d="M934.7 136.393H937.64V137.45H930.02V136.393H933.42V125.185L930.18 127.12L929.62 126.222L933.62 123.749H934.7V136.393Z" fill="url(#paint85_linear_175_198)"/>
<path d="M933.5 146.342C934.927 146.342 936.006 146.947 936.74 148.157C937.486 149.354 937.86 151.096 937.86 153.383C937.86 155.669 937.486 157.418 936.74 158.628C936.006 159.838 934.927 160.443 933.5 160.443C932.087 160.443 931.007 159.838 930.26 158.628C929.514 157.418 929.14 155.669 929.14 153.383C929.14 151.109 929.514 149.367 930.26 148.157C931.007 146.947 932.087 146.342 933.5 146.342ZM930.56 153.383C930.56 155.005 930.707 156.274 931 157.192L935.44 148.357C934.973 147.732 934.327 147.419 933.5 147.419C932.58 147.419 931.86 147.911 931.34 148.895C930.82 149.866 930.56 151.362 930.56 153.383ZM933.5 159.346C934.433 159.346 935.16 158.86 935.68 157.89C936.2 156.906 936.46 155.404 936.46 153.383C936.46 151.667 936.293 150.338 935.96 149.394L931.52 158.309C932 159 932.66 159.346 933.5 159.346Z" fill="url(#paint86_linear_175_198)"/>
<path d="M934.7 181.979H937.64V183.036H930.02V181.979H933.42V170.771L930.18 172.705L929.62 171.808L933.62 169.335H934.7V181.979Z" fill="url(#paint87_linear_175_198)"/>
<path d="M933.5 191.928C934.927 191.928 936.006 192.533 936.74 193.743C937.486 194.94 937.86 196.681 937.86 198.968C937.86 201.255 937.486 203.003 936.74 204.213C936.006 205.423 934.927 206.028 933.5 206.028C932.087 206.028 931.007 205.423 930.26 204.213C929.514 203.003 929.14 201.255 929.14 198.968C929.14 196.695 929.514 194.953 930.26 193.743C931.007 192.533 932.087 191.928 933.5 191.928ZM930.56 198.968C930.56 200.59 930.707 201.86 931 202.777L935.44 193.942C934.973 193.317 934.327 193.005 933.5 193.005C932.58 193.005 931.86 193.497 931.34 194.481C930.82 195.451 930.56 196.947 930.56 198.968ZM933.5 204.931C934.433 204.931 935.16 204.446 935.68 203.475C936.2 202.492 936.46 200.989 936.46 198.968C936.46 197.253 936.293 195.923 935.96 194.979L931.52 203.894C932 204.586 932.66 204.931 933.5 204.931Z" fill="url(#paint88_linear_175_198)"/>
<path d="M970.64 -13.2072C972.067 -13.2072 973.147 -12.6022 973.88 -11.3923C974.627 -10.1957 975 -8.45395 975 -6.16707C975 -3.88019 974.627 -2.13179 973.88 -0.921876C973.147 0.288042 972.067 0.893001 970.64 0.893001C969.227 0.893001 968.147 0.288042 967.401 -0.921876C966.654 -2.13179 966.281 -3.88019 966.281 -6.16707C966.281 -8.44065 966.654 -10.1824 967.401 -11.3923C968.147 -12.6022 969.227 -13.2072 970.64 -13.2072ZM967.7 -6.16707C967.7 -4.54498 967.847 -3.27523 968.14 -2.35782L972.58 -11.1929C972.114 -11.8178 971.467 -12.1302 970.64 -12.1302C969.72 -12.1302 969 -11.6383 968.48 -10.6544C967.96 -9.68381 967.7 -8.18803 967.7 -6.16707ZM970.64 -0.203903C971.574 -0.203903 972.3 -0.689198 972.82 -1.65979C973.34 -2.64368 973.6 -4.14611 973.6 -6.16707C973.6 -7.88223 973.433 -9.21181 973.1 -10.1558L968.66 -1.24098C969.14 -0.549596 969.8 -0.203903 970.64 -0.203903Z" fill="url(#paint89_linear_175_198)"/>
<path d="M971.84 22.4293H974.78V23.4864H967.161V22.4293H970.56V11.221L967.321 13.1555L966.761 12.2581L970.76 9.78504H971.84V22.4293Z" fill="url(#paint90_linear_175_198)"/>
<path d="M971.84 45.2221H974.78V46.2792H967.161V45.2221H970.56V34.0138L967.321 35.9483L966.761 35.0509L970.76 32.5778H971.84V45.2221Z" fill="url(#paint91_linear_175_198)"/>
<path d="M970.64 55.1712C972.067 55.1712 973.147 55.7762 973.88 56.9861C974.627 58.1827 975 59.9245 975 62.2113C975 64.4982 974.627 66.2466 973.88 67.4565C973.147 68.6664 972.067 69.2714 970.64 69.2714C969.227 69.2714 968.147 68.6664 967.401 67.4565C966.654 66.2466 966.281 64.4982 966.281 62.2113C966.281 59.9378 966.654 58.196 967.401 56.9861C968.147 55.7762 969.227 55.1712 970.64 55.1712ZM967.7 62.2113C967.7 63.8334 967.847 65.1032 968.14 66.0206L972.58 57.1855C972.114 56.5606 971.467 56.2482 970.64 56.2482C969.72 56.2482 969 56.7401 968.48 57.724C967.96 58.6946 967.7 60.1904 967.7 62.2113ZM970.64 68.1745C971.574 68.1745 972.3 67.6892 972.82 66.7186C973.34 65.7347 973.6 64.2323 973.6 62.2113C973.6 60.4962 973.433 59.1666 973.1 58.2226L968.66 67.1374C969.14 67.8288 969.8 68.1745 970.64 68.1745Z" fill="url(#paint92_linear_175_198)"/>
<path d="M970.64 77.964C972.067 77.964 973.147 78.569 973.88 79.7789C974.627 80.9755 975 82.7173 975 85.0041C975 87.291 974.627 89.0394 973.88 90.2493C973.147 91.4593 972.067 92.0642 970.64 92.0642C969.227 92.0642 968.147 91.4593 967.401 90.2493C966.654 89.0394 966.281 87.291 966.281 85.0041C966.281 82.7306 966.654 80.9888 967.401 79.7789C968.147 78.569 969.227 77.964 970.64 77.964ZM967.7 85.0041C967.7 86.6262 967.847 87.896 968.14 88.8134L972.58 79.9783C972.114 79.3534 971.467 79.041 970.64 79.041C969.72 79.041 969 79.5329 968.48 80.5168C967.96 81.4874 967.7 82.9832 967.7 85.0041ZM970.64 90.9673C971.574 90.9673 972.3 90.482 972.82 89.5114C973.34 88.5275 973.6 87.0251 973.6 85.0041C973.6 83.289 973.433 81.9594 973.1 81.0154L968.66 89.9302C969.14 90.6216 969.8 90.9673 970.64 90.9673Z" fill="url(#paint93_linear_175_198)"/>
</g>
<defs>
<filter id="filter0_f_175_198" x="-563.19" y="-722.19" width="2141.38" height="1500.38" filterUnits="userSpaceOnUse" color-interpolation-filters="sRGB">
<feFlood flood-opacity="0" result="BackgroundImageFix"/>
<feBlend mode="normal" in="SourceGraphic" in2="BackgroundImageFix" result="shape"/>
<feGaussianBlur stdDeviation="200.095" result="effect1_foregroundBlur_175_198"/>
</filter>
<linearGradient id="paint0_linear_175_198" x1="47.5" y1="264" x2="47.5" y2="575.381" gradientUnits="userSpaceOnUse">
<stop stop-color="#F7DD43"/>
<stop offset="1" stop-color="#F7DD43" stop-opacity="0"/>
</linearGradient>
<linearGradient id="paint1_linear_175_198" x1="47.5" y1="264" x2="47.5" y2="575.381" gradientUnits="userSpaceOnUse">
<stop stop-color="#F7DD43"/>
<stop offset="1" stop-color="#F7DD43" stop-opacity="0"/>
</linearGradient>
<linearGradient id="paint2_linear_175_198" x1="47.5" y1="264" x2="47.5" y2="575.381" gradientUnits="userSpaceOnUse">
<stop stop-color="#F7DD43"/>
<stop offset="1" stop-color="#F7DD43" stop-opacity="0"/>
</linearGradient>
<linearGradient id="paint3_linear_175_198" x1="47.5" y1="264" x2="47.5" y2="575.381" gradientUnits="userSpaceOnUse">
<stop stop-color="#F7DD43"/>
<stop offset="1" stop-color="#F7DD43" stop-opacity="0"/>
</linearGradient>
<linearGradient id="paint4_linear_175_198" x1="47.5" y1="264" x2="47.5" y2="575.381" gradientUnits="userSpaceOnUse">
<stop stop-color="#F7DD43"/>
<stop offset="1" stop-color="#F7DD43" stop-opacity="0"/>
</linearGradient>
<linearGradient id="paint5_linear_175_198" x1="47.5" y1="264" x2="47.5" y2="575.381" gradientUnits="userSpaceOnUse">
<stop stop-color="#F7DD43"/>
<stop offset="1" stop-color="#F7DD43" stop-opacity="0"/>
</linearGradient>
<linearGradient id="paint6_linear_175_198" x1="47.5" y1="264" x2="47.5" y2="575.381" gradientUnits="userSpaceOnUse">
<stop stop-color="#F7DD43"/>
<stop offset="1" stop-color="#F7DD43" stop-opacity="0"/>
</linearGradient>
<linearGradient id="paint7_linear_175_198" x1="47.5" y1="264" x2="47.5" y2="575.381" gradientUnits="userSpaceOnUse">
<stop stop-color="#F7DD43"/>
<stop offset="1" stop-color="#F7DD43" stop-opacity="0"/>
</linearGradient>
<linearGradient id="paint8_linear_175_198" x1="47.5" y1="264" x2="47.5" y2="575.381" gradientUnits="userSpaceOnUse">
<stop stop-color="#F7DD43"/>
<stop offset="1" stop-color="#F7DD43" stop-opacity="0"/>
</linearGradient>
<linearGradient id="paint9_linear_175_198" x1="47.5" y1="264" x2="47.5" y2="575.381" gradientUnits="userSpaceOnUse">
<stop stop-color="#F7DD43"/>
<stop offset="1" stop-color="#F7DD43" stop-opacity="0"/>
</linearGradient>
<linearGradient id="paint10_linear_175_198" x1="47.5" y1="264" x2="47.5" y2="575.381" gradientUnits="userSpaceOnUse">
<stop stop-color="#F7DD43"/>
<stop offset="1" stop-color="#F7DD43" stop-opacity="0"/>
</linearGradient>
<linearGradient id="paint11_linear_175_198" x1="47.5" y1="264" x2="47.5" y2="575.381" gradientUnits="userSpaceOnUse">
<stop stop-color="#F7DD43"/>
<stop offset="1" stop-color="#F7DD43" stop-opacity="0"/>
</linearGradient>
<linearGradient id="paint12_linear_175_198" x1="47.5" y1="264" x2="47.5" y2="575.381" gradientUnits="userSpaceOnUse">
<stop stop-color="#F7DD43"/>
<stop offset="1" stop-color="#F7DD43" stop-opacity="0"/>
</linearGradient>
<linearGradient id="paint13_linear_175_198" x1="47.5" y1="264" x2="47.5" y2="575.381" gradientUnits="userSpaceOnUse">
<stop stop-color="#F7DD43"/>
<stop offset="1" stop-color="#F7DD43" stop-opacity="0"/>
</linearGradient>
<linearGradient id="paint14_linear_175_198" x1="47.5" y1="264" x2="47.5" y2="575.381" gradientUnits="userSpaceOnUse">
<stop stop-color="#F7DD43"/>
<stop offset="1" stop-color="#F7DD43" stop-opacity="0"/>
</linearGradient>
<linearGradient id="paint15_linear_175_198" x1="47.5" y1="264" x2="47.5" y2="575.381" gradientUnits="userSpaceOnUse">
<stop stop-color="#F7DD43"/>
<stop offset="1" stop-color="#F7DD43" stop-opacity="0"/>
</linearGradient>
<linearGradient id="paint16_linear_175_198" x1="47.5" y1="264" x2="47.5" y2="575.381" gradientUnits="userSpaceOnUse">
<stop stop-color="#F7DD43"/>
<stop offset="1" stop-color="#F7DD43" stop-opacity="0"/>
</linearGradient>
<linearGradient id="paint17_linear_175_198" x1="47.5" y1="264" x2="47.5" y2="575.381" gradientUnits="userSpaceOnUse">
<stop stop-color="#F7DD43"/>
<stop offset="1" stop-color="#F7DD43" stop-opacity="0"/>
</linearGradient>
<linearGradient id="paint18_linear_175_198" x1="47.5" y1="264" x2="47.5" y2="575.381" gradientUnits="userSpaceOnUse">
<stop stop-color="#F7DD43"/>
<stop offset="1" stop-color="#F7DD43" stop-opacity="0"/>
</linearGradient>
<linearGradient id="paint19_linear_175_198" x1="47.5" y1="264" x2="47.5" y2="575.381" gradientUnits="userSpaceOnUse">
<stop stop-color="#F7DD43"/>
<stop offset="1" stop-color="#F7DD43" stop-opacity="0"/>
</linearGradient>
<linearGradient id="paint20_linear_175_198" x1="47.5" y1="264" x2="47.5" y2="575.381" gradientUnits="userSpaceOnUse">
<stop stop-color="#F7DD43"/>
<stop offset="1" stop-color="#F7DD43" stop-opacity="0"/>
</linearGradient>
<linearGradient id="paint21_linear_175_198" x1="47.5" y1="264" x2="47.5" y2="575.381" gradientUnits="userSpaceOnUse">
<stop stop-color="#F7DD43"/>
<stop offset="1" stop-color="#F7DD43" stop-opacity="0"/>
</linearGradient>
<linearGradient id="paint22_linear_175_198" x1="47.5" y1="264" x2="47.5" y2="575.381" gradientUnits="userSpaceOnUse">
<stop stop-color="#F7DD43"/>
<stop offset="1" stop-color="#F7DD43" stop-opacity="0"/>
</linearGradient>
<linearGradient id="paint23_linear_175_198" x1="47.5" y1="264" x2="47.5" y2="575.381" gradientUnits="userSpaceOnUse">
<stop stop-color="#F7DD43"/>
<stop offset="1" stop-color="#F7DD43" stop-opacity="0"/>
</linearGradient>
<linearGradient id="paint24_linear_175_198" x1="47.5" y1="264" x2="47.5" y2="575.381" gradientUnits="userSpaceOnUse">
<stop stop-color="#F7DD43"/>
<stop offset="1" stop-color="#F7DD43" stop-opacity="0"/>
</linearGradient>
<linearGradient id="paint25_linear_175_198" x1="47.5" y1="264" x2="47.5" y2="575.381" gradientUnits="userSpaceOnUse">
<stop stop-color="#F7DD43"/>
<stop offset="1" stop-color="#F7DD43" stop-opacity="0"/>
</linearGradient>
<linearGradient id="paint26_linear_175_198" x1="47.5" y1="264" x2="47.5" y2="575.381" gradientUnits="userSpaceOnUse">
<stop stop-color="#F7DD43"/>
<stop offset="1" stop-color="#F7DD43" stop-opacity="0"/>
</linearGradient>
<linearGradient id="paint27_linear_175_198" x1="47.5" y1="264" x2="47.5" y2="575.381" gradientUnits="userSpaceOnUse">
<stop stop-color="#F7DD43"/>
<stop offset="1" stop-color="#F7DD43" stop-opacity="0"/>
</linearGradient>
<linearGradient id="paint28_linear_175_198" x1="47.5" y1="264" x2="47.5" y2="575.381" gradientUnits="userSpaceOnUse">
<stop stop-color="#F7DD43"/>
<stop offset="1" stop-color="#F7DD43" stop-opacity="0"/>
</linearGradient>
<linearGradient id="paint29_linear_175_198" x1="47.5" y1="264" x2="47.5" y2="575.381" gradientUnits="userSpaceOnUse">
<stop stop-color="#F7DD43"/>
<stop offset="1" stop-color="#F7DD43" stop-opacity="0"/>
</linearGradient>
<linearGradient id="paint30_linear_175_198" x1="47.5" y1="264" x2="47.5" y2="575.381" gradientUnits="userSpaceOnUse">
<stop stop-color="#F7DD43"/>
<stop offset="1" stop-color="#F7DD43" stop-opacity="0"/>
</linearGradient>
<linearGradient id="paint31_linear_175_198" x1="47.5" y1="264" x2="47.5" y2="575.381" gradientUnits="userSpaceOnUse">
<stop stop-color="#F7DD43"/>
<stop offset="1" stop-color="#F7DD43" stop-opacity="0"/>
</linearGradient>
<linearGradient id="paint32_linear_175_198" x1="47.5" y1="264" x2="47.5" y2="575.381" gradientUnits="userSpaceOnUse">
<stop stop-color="#F7DD43"/>
<stop offset="1" stop-color="#F7DD43" stop-opacity="0"/>
</linearGradient>
<linearGradient id="paint33_linear_175_198" x1="47.5" y1="264" x2="47.5" y2="575.381" gradientUnits="userSpaceOnUse">
<stop stop-color="#F7DD43"/>
<stop offset="1" stop-color="#F7DD43" stop-opacity="0"/>
</linearGradient>
<linearGradient id="paint34_linear_175_198" x1="47.5" y1="264" x2="47.5" y2="575.381" gradientUnits="userSpaceOnUse">
<stop stop-color="#F7DD43"/>
<stop offset="1" stop-color="#F7DD43" stop-opacity="0"/>
</linearGradient>
<linearGradient id="paint35_linear_175_198" x1="47.5" y1="264" x2="47.5" y2="575.381" gradientUnits="userSpaceOnUse">
<stop stop-color="#F7DD43"/>
<stop offset="1" stop-color="#F7DD43" stop-opacity="0"/>
</linearGradient>
<linearGradient id="paint36_linear_175_198" x1="47.5" y1="264" x2="47.5" y2="575.381" gradientUnits="userSpaceOnUse">
<stop stop-color="#F7DD43"/>
<stop offset="1" stop-color="#F7DD43" stop-opacity="0"/>
</linearGradient>
<linearGradient id="paint37_linear_175_198" x1="47.5" y1="264" x2="47.5" y2="575.381" gradientUnits="userSpaceOnUse">
<stop stop-color="#F7DD43"/>
<stop offset="1" stop-color="#F7DD43" stop-opacity="0"/>
</linearGradient>
<linearGradient id="paint38_linear_175_198" x1="47.5" y1="264" x2="47.5" y2="575.381" gradientUnits="userSpaceOnUse">
<stop stop-color="#F7DD43"/>
<stop offset="1" stop-color="#F7DD43" stop-opacity="0"/>
</linearGradient>
<linearGradient id="paint39_linear_175_198" x1="47.5" y1="264" x2="47.5" y2="575.381" gradientUnits="userSpaceOnUse">
<stop stop-color="#F7DD43"/>
<stop offset="1" stop-color="#F7DD43" stop-opacity="0"/>
</linearGradient>
<linearGradient id="paint40_linear_175_198" x1="47.5" y1="264" x2="47.5" y2="575.381" gradientUnits="userSpaceOnUse">
<stop stop-color="#F7DD43"/>
<stop offset="1" stop-color="#F7DD43" stop-opacity="0"/>
</linearGradient>
<linearGradient id="paint41_linear_175_198" x1="47.5" y1="264" x2="47.5" y2="575.381" gradientUnits="userSpaceOnUse">
<stop stop-color="#F7DD43"/>
<stop offset="1" stop-color="#F7DD43" stop-opacity="0"/>
</linearGradient>
<linearGradient id="paint42_linear_175_198" x1="47.5" y1="264" x2="47.5" y2="575.381" gradientUnits="userSpaceOnUse">
<stop stop-color="#F7DD43"/>
<stop offset="1" stop-color="#F7DD43" stop-opacity="0"/>
</linearGradient>
<linearGradient id="paint43_linear_175_198" x1="47.5" y1="264" x2="47.5" y2="575.381" gradientUnits="userSpaceOnUse">
<stop stop-color="#F7DD43"/>
<stop offset="1" stop-color="#F7DD43" stop-opacity="0"/>
</linearGradient>
<linearGradient id="paint44_linear_175_198" x1="47.5" y1="264" x2="47.5" y2="575.381" gradientUnits="userSpaceOnUse">
<stop stop-color="#F7DD43"/>
<stop offset="1" stop-color="#F7DD43" stop-opacity="0"/>
</linearGradient>
<linearGradient id="paint45_linear_175_198" x1="47.5" y1="264" x2="47.5" y2="575.381" gradientUnits="userSpaceOnUse">
<stop stop-color="#F7DD43"/>
<stop offset="1" stop-color="#F7DD43" stop-opacity="0"/>
</linearGradient>
<linearGradient id="paint46_linear_175_198" x1="47.5" y1="264" x2="47.5" y2="575.381" gradientUnits="userSpaceOnUse">
<stop stop-color="#F7DD43"/>
<stop offset="1" stop-color="#F7DD43" stop-opacity="0"/>
</linearGradient>
<linearGradient id="paint47_linear_175_198" x1="933.5" y1="-36" x2="933.5" y2="262.818" gradientUnits="userSpaceOnUse">
<stop stop-color="#F7DD43"/>
<stop offset="1" stop-color="#F7DD43" stop-opacity="0"/>
</linearGradient>
<linearGradient id="paint48_linear_175_198" x1="933.5" y1="-36" x2="933.5" y2="262.818" gradientUnits="userSpaceOnUse">
<stop stop-color="#F7DD43"/>
<stop offset="1" stop-color="#F7DD43" stop-opacity="0"/>
</linearGradient>
<linearGradient id="paint49_linear_175_198" x1="933.5" y1="-36" x2="933.5" y2="262.818" gradientUnits="userSpaceOnUse">
<stop stop-color="#F7DD43"/>
<stop offset="1" stop-color="#F7DD43" stop-opacity="0"/>
</linearGradient>
<linearGradient id="paint50_linear_175_198" x1="933.5" y1="-36" x2="933.5" y2="262.818" gradientUnits="userSpaceOnUse">
<stop stop-color="#F7DD43"/>
<stop offset="1" stop-color="#F7DD43" stop-opacity="0"/>
</linearGradient>
<linearGradient id="paint51_linear_175_198" x1="933.5" y1="-36" x2="933.5" y2="262.818" gradientUnits="userSpaceOnUse">
<stop stop-color="#F7DD43"/>
<stop offset="1" stop-color="#F7DD43" stop-opacity="0"/>
</linearGradient>
<linearGradient id="paint52_linear_175_198" x1="933.5" y1="-36" x2="933.5" y2="262.818" gradientUnits="userSpaceOnUse">
<stop stop-color="#F7DD43"/>
<stop offset="1" stop-color="#F7DD43" stop-opacity="0"/>
</linearGradient>
<linearGradient id="paint53_linear_175_198" x1="933.5" y1="-36" x2="933.5" y2="262.818" gradientUnits="userSpaceOnUse">
<stop stop-color="#F7DD43"/>
<stop offset="1" stop-color="#F7DD43" stop-opacity="0"/>
</linearGradient>
<linearGradient id="paint54_linear_175_198" x1="933.5" y1="-36" x2="933.5" y2="262.818" gradientUnits="userSpaceOnUse">
<stop stop-color="#F7DD43"/>
<stop offset="1" stop-color="#F7DD43" stop-opacity="0"/>
</linearGradient>
<linearGradient id="paint55_linear_175_198" x1="933.5" y1="-36" x2="933.5" y2="262.818" gradientUnits="userSpaceOnUse">
<stop stop-color="#F7DD43"/>
<stop offset="1" stop-color="#F7DD43" stop-opacity="0"/>
</linearGradient>
<linearGradient id="paint56_linear_175_198" x1="933.5" y1="-36" x2="933.5" y2="262.818" gradientUnits="userSpaceOnUse">
<stop stop-color="#F7DD43"/>
<stop offset="1" stop-color="#F7DD43" stop-opacity="0"/>
</linearGradient>
<linearGradient id="paint57_linear_175_198" x1="933.5" y1="-36" x2="933.5" y2="262.818" gradientUnits="userSpaceOnUse">
<stop stop-color="#F7DD43"/>
<stop offset="1" stop-color="#F7DD43" stop-opacity="0"/>
</linearGradient>
<linearGradient id="paint58_linear_175_198" x1="933.5" y1="-36" x2="933.5" y2="262.818" gradientUnits="userSpaceOnUse">
<stop stop-color="#F7DD43"/>
<stop offset="1" stop-color="#F7DD43" stop-opacity="0"/>
</linearGradient>
<linearGradient id="paint59_linear_175_198" x1="933.5" y1="-36" x2="933.5" y2="262.818" gradientUnits="userSpaceOnUse">
<stop stop-color="#F7DD43"/>
<stop offset="1" stop-color="#F7DD43" stop-opacity="0"/>
</linearGradient>
<linearGradient id="paint60_linear_175_198" x1="933.5" y1="-36" x2="933.5" y2="262.818" gradientUnits="userSpaceOnUse">
<stop stop-color="#F7DD43"/>
<stop offset="1" stop-color="#F7DD43" stop-opacity="0"/>
</linearGradient>
<linearGradient id="paint61_linear_175_198" x1="933.5" y1="-36" x2="933.5" y2="262.818" gradientUnits="userSpaceOnUse">
<stop stop-color="#F7DD43"/>
<stop offset="1" stop-color="#F7DD43" stop-opacity="0"/>
</linearGradient>
<linearGradient id="paint62_linear_175_198" x1="933.5" y1="-36" x2="933.5" y2="262.818" gradientUnits="userSpaceOnUse">
<stop stop-color="#F7DD43"/>
<stop offset="1" stop-color="#F7DD43" stop-opacity="0"/>
</linearGradient>
<linearGradient id="paint63_linear_175_198" x1="933.5" y1="-36" x2="933.5" y2="262.818" gradientUnits="userSpaceOnUse">
<stop stop-color="#F7DD43"/>
<stop offset="1" stop-color="#F7DD43" stop-opacity="0"/>
</linearGradient>
<linearGradient id="paint64_linear_175_198" x1="933.5" y1="-36" x2="933.5" y2="262.818" gradientUnits="userSpaceOnUse">
<stop stop-color="#F7DD43"/>
<stop offset="1" stop-color="#F7DD43" stop-opacity="0"/>
</linearGradient>
<linearGradient id="paint65_linear_175_198" x1="933.5" y1="-36" x2="933.5" y2="262.818" gradientUnits="userSpaceOnUse">
<stop stop-color="#F7DD43"/>
<stop offset="1" stop-color="#F7DD43" stop-opacity="0"/>
</linearGradient>
<linearGradient id="paint66_linear_175_198" x1="933.5" y1="-36" x2="933.5" y2="262.818" gradientUnits="userSpaceOnUse">
<stop stop-color="#F7DD43"/>
<stop offset="1" stop-color="#F7DD43" stop-opacity="0"/>
</linearGradient>
<linearGradient id="paint67_linear_175_198" x1="933.5" y1="-36" x2="933.5" y2="262.818" gradientUnits="userSpaceOnUse">
<stop stop-color="#F7DD43"/>
<stop offset="1" stop-color="#F7DD43" stop-opacity="0"/>
</linearGradient>
<linearGradient id="paint68_linear_175_198" x1="933.5" y1="-36" x2="933.5" y2="262.818" gradientUnits="userSpaceOnUse">
<stop stop-color="#F7DD43"/>
<stop offset="1" stop-color="#F7DD43" stop-opacity="0"/>
</linearGradient>
<linearGradient id="paint69_linear_175_198" x1="933.5" y1="-36" x2="933.5" y2="262.818" gradientUnits="userSpaceOnUse">
<stop stop-color="#F7DD43"/>
<stop offset="1" stop-color="#F7DD43" stop-opacity="0"/>
</linearGradient>
<linearGradient id="paint70_linear_175_198" x1="933.5" y1="-36" x2="933.5" y2="262.818" gradientUnits="userSpaceOnUse">
<stop stop-color="#F7DD43"/>
<stop offset="1" stop-color="#F7DD43" stop-opacity="0"/>
</linearGradient>
<linearGradient id="paint71_linear_175_198" x1="933.5" y1="-36" x2="933.5" y2="262.818" gradientUnits="userSpaceOnUse">
<stop stop-color="#F7DD43"/>
<stop offset="1" stop-color="#F7DD43" stop-opacity="0"/>
</linearGradient>
<linearGradient id="paint72_linear_175_198" x1="933.5" y1="-36" x2="933.5" y2="262.818" gradientUnits="userSpaceOnUse">
<stop stop-color="#F7DD43"/>
<stop offset="1" stop-color="#F7DD43" stop-opacity="0"/>
</linearGradient>
<linearGradient id="paint73_linear_175_198" x1="933.5" y1="-36" x2="933.5" y2="262.818" gradientUnits="userSpaceOnUse">
<stop stop-color="#F7DD43"/>
<stop offset="1" stop-color="#F7DD43" stop-opacity="0"/>
</linearGradient>
<linearGradient id="paint74_linear_175_198" x1="933.5" y1="-36" x2="933.5" y2="262.818" gradientUnits="userSpaceOnUse">
<stop stop-color="#F7DD43"/>
<stop offset="1" stop-color="#F7DD43" stop-opacity="0"/>
</linearGradient>
<linearGradient id="paint75_linear_175_198" x1="933.5" y1="-36" x2="933.5" y2="262.818" gradientUnits="userSpaceOnUse">
<stop stop-color="#F7DD43"/>
<stop offset="1" stop-color="#F7DD43" stop-opacity="0"/>
</linearGradient>
<linearGradient id="paint76_linear_175_198" x1="933.5" y1="-36" x2="933.5" y2="262.818" gradientUnits="userSpaceOnUse">
<stop stop-color="#F7DD43"/>
<stop offset="1" stop-color="#F7DD43" stop-opacity="0"/>
</linearGradient>
<linearGradient id="paint77_linear_175_198" x1="933.5" y1="-36" x2="933.5" y2="262.818" gradientUnits="userSpaceOnUse">
<stop stop-color="#F7DD43"/>
<stop offset="1" stop-color="#F7DD43" stop-opacity="0"/>
</linearGradient>
<linearGradient id="paint78_linear_175_198" x1="933.5" y1="-36" x2="933.5" y2="262.818" gradientUnits="userSpaceOnUse">
<stop stop-color="#F7DD43"/>
<stop offset="1" stop-color="#F7DD43" stop-opacity="0"/>
</linearGradient>
<linearGradient id="paint79_linear_175_198" x1="933.5" y1="-36" x2="933.5" y2="262.818" gradientUnits="userSpaceOnUse">
<stop stop-color="#F7DD43"/>
<stop offset="1" stop-color="#F7DD43" stop-opacity="0"/>
</linearGradient>
<linearGradient id="paint80_linear_175_198" x1="933.5" y1="-36" x2="933.5" y2="262.818" gradientUnits="userSpaceOnUse">
<stop stop-color="#F7DD43"/>
<stop offset="1" stop-color="#F7DD43" stop-opacity="0"/>
</linearGradient>
<linearGradient id="paint81_linear_175_198" x1="933.5" y1="-36" x2="933.5" y2="262.818" gradientUnits="userSpaceOnUse">
<stop stop-color="#F7DD43"/>
<stop offset="1" stop-color="#F7DD43" stop-opacity="0"/>
</linearGradient>
<linearGradient id="paint82_linear_175_198" x1="933.5" y1="-36" x2="933.5" y2="262.818" gradientUnits="userSpaceOnUse">
<stop stop-color="#F7DD43"/>
<stop offset="1" stop-color="#F7DD43" stop-opacity="0"/>
</linearGradient>
<linearGradient id="paint83_linear_175_198" x1="933.5" y1="-36" x2="933.5" y2="262.818" gradientUnits="userSpaceOnUse">
<stop stop-color="#F7DD43"/>
<stop offset="1" stop-color="#F7DD43" stop-opacity="0"/>
</linearGradient>
<linearGradient id="paint84_linear_175_198" x1="933.5" y1="-36" x2="933.5" y2="262.818" gradientUnits="userSpaceOnUse">
<stop stop-color="#F7DD43"/>
<stop offset="1" stop-color="#F7DD43" stop-opacity="0"/>
</linearGradient>
<linearGradient id="paint85_linear_175_198" x1="933.5" y1="-36" x2="933.5" y2="262.818" gradientUnits="userSpaceOnUse">
<stop stop-color="#F7DD43"/>
<stop offset="1" stop-color="#F7DD43" stop-opacity="0"/>
</linearGradient>
<linearGradient id="paint86_linear_175_198" x1="933.5" y1="-36" x2="933.5" y2="262.818" gradientUnits="userSpaceOnUse">
<stop stop-color="#F7DD43"/>
<stop offset="1" stop-color="#F7DD43" stop-opacity="0"/>
</linearGradient>
<linearGradient id="paint87_linear_175_198" x1="933.5" y1="-36" x2="933.5" y2="262.818" gradientUnits="userSpaceOnUse">
<stop stop-color="#F7DD43"/>
<stop offset="1" stop-color="#F7DD43" stop-opacity="0"/>
</linearGradient>
<linearGradient id="paint88_linear_175_198" x1="933.5" y1="-36" x2="933.5" y2="262.818" gradientUnits="userSpaceOnUse">
<stop stop-color="#F7DD43"/>
<stop offset="1" stop-color="#F7DD43" stop-opacity="0"/>
</linearGradient>
<linearGradient id="paint89_linear_175_198" x1="933.5" y1="-36" x2="933.5" y2="262.818" gradientUnits="userSpaceOnUse">
<stop stop-color="#F7DD43"/>
<stop offset="1" stop-color="#F7DD43" stop-opacity="0"/>
</linearGradient>
<linearGradient id="paint90_linear_175_198" x1="933.5" y1="-36" x2="933.5" y2="262.818" gradientUnits="userSpaceOnUse">
<stop stop-color="#F7DD43"/>
<stop offset="1" stop-color="#F7DD43" stop-opacity="0"/>
</linearGradient>
<linearGradient id="paint91_linear_175_198" x1="933.5" y1="-36" x2="933.5" y2="262.818" gradientUnits="userSpaceOnUse">
<stop stop-color="#F7DD43"/>
<stop offset="1" stop-color="#F7DD43" stop-opacity="0"/>
</linearGradient>
<linearGradient id="paint92_linear_175_198" x1="933.5" y1="-36" x2="933.5" y2="262.818" gradientUnits="userSpaceOnUse">
<stop stop-color="#F7DD43"/>
<stop offset="1" stop-color="#F7DD43" stop-opacity="0"/>
</linearGradient>
<linearGradient id="paint93_linear_175_198" x1="933.5" y1="-36" x2="933.5" y2="262.818" gradientUnits="userSpaceOnUse">
<stop stop-color="#F7DD43"/>
<stop offset="1" stop-color="#F7DD43" stop-opacity="0"/>
</linearGradient>
</defs>
</svg>
