<svg width="72" height="72" viewBox="0 0 72 72" fill="none" xmlns="http://www.w3.org/2000/svg">
<g clip-path="url(#clip0_437_590)">
<path d="M36.0312 71.0625C55.4475 71.0625 71.1875 55.3225 71.1875 35.9062C71.1875 16.49 55.4475 0.75 36.0312 0.75C16.615 0.75 0.875 16.49 0.875 35.9062C0.875 55.3225 16.615 71.0625 36.0312 71.0625Z" fill="#F0F0F0"/>
<path d="M70.8899 31.3207H40.6171H40.6169V1.04759C39.1158 0.852173 37.5854 0.75 36.0312 0.75C34.4771 0.75 32.9467 0.852173 31.4457 1.04759V31.3204V31.3206H1.17259C0.977173 32.8217 0.875 34.3518 0.875 35.9062C0.875 37.4607 0.977173 38.9908 1.17259 40.4918H31.4454H31.4456V70.7649C32.9467 70.9603 34.4771 71.0625 36.0312 71.0625C37.5854 71.0625 39.1158 70.9605 40.6168 70.7649V40.4921V40.4919H70.8899C71.0853 38.9908 71.1875 37.4607 71.1875 35.9062C71.1875 34.3518 71.0853 32.8217 70.8899 31.3207V31.3207Z" fill="#D80027"/>
</g>
<defs>
<clipPath id="clip0_437_590">
<rect width="70.3125" height="70.3125" fill="white" transform="translate(0.875 0.75)"/>
</clipPath>
</defs>
</svg>
