<svg width="72" height="72" viewBox="0 0 72 72" fill="none" xmlns="http://www.w3.org/2000/svg">
<g clip-path="url(#clip0_437_590)">
<path d="M0.875 35.9063C0.875 40.2066 1.64857 44.3259 3.06169 48.1344L36.0312 51.1915L69.0008 48.1344C70.4139 44.3259 71.1875 40.2066 71.1875 35.9063C71.1875 31.6059 70.4139 27.4866 69.0008 23.6781L36.0312 20.621L3.06169 23.6781C1.64857 27.4866 0.875 31.6059 0.875 35.9063H0.875Z" fill="#FFDA44"/>
<path d="M69.0008 23.6781C64.0334 10.2907 51.1472 0.75 36.0312 0.75C20.9153 0.75 8.02898 10.2907 3.06165 23.6781H69.0008Z" fill="#D80027"/>
<path d="M3.06165 48.1344C8.02898 61.5218 20.9153 71.0625 36.0312 71.0625C51.1472 71.0625 64.0334 61.5218 69.0008 48.1344H3.06165Z" fill="#D80027"/>
</g>
<defs>
<clipPath id="clip0_437_590">
<rect width="70.3125" height="70.3125" fill="white" transform="translate(0.875 0.75)"/>
</clipPath>
</defs>
</svg>
