<svg width="72" height="72" viewBox="0 0 72 72" fill="none" xmlns="http://www.w3.org/2000/svg">
<g clip-path="url(#clip0_437_590)">
<path d="M36.0312 71.0625C55.4475 71.0625 71.1875 55.3225 71.1875 35.9062C71.1875 16.49 55.4475 0.75 36.0312 0.75C16.615 0.75 0.875 16.49 0.875 35.9062C0.875 55.3225 16.615 71.0625 36.0312 71.0625Z" fill="#F0F0F0"/>
<path d="M36.0312 0.75C20.9153 0.75 8.02898 10.2905 3.06165 23.6781H69.0009C64.0334 10.2905 51.1472 0.75 36.0312 0.75V0.75Z" fill="#A2001D"/>
<path d="M36.0312 71.0625C51.1472 71.0625 64.0334 61.522 69.0008 48.1344H3.06165C8.02898 61.522 20.9153 71.0625 36.0312 71.0625Z" fill="#0052B4"/>
</g>
<defs>
<clipPath id="clip0_437_590">
<rect width="70.3125" height="70.3125" fill="white" transform="translate(0.875 0.75)"/>
</clipPath>
</defs>
</svg>
