<svg width="72" height="72" viewBox="0 0 72 72" fill="none" xmlns="http://www.w3.org/2000/svg">
<g clip-path="url(#clip0_437_590)">
<path d="M36.0312 71.0625C55.4475 71.0625 71.1875 55.3225 71.1875 35.9062C71.1875 16.49 55.4475 0.75 36.0312 0.75C16.615 0.75 0.875 16.49 0.875 35.9062C0.875 55.3225 16.615 71.0625 36.0312 71.0625Z" fill="#F0F0F0"/>
<path d="M71.1875 35.9062C71.1875 55.3224 55.4474 71.0625 36.0312 71.0625C16.6151 71.0625 0.875 55.3224 0.875 35.9062" fill="#496E2D"/>
<path d="M61.7137 25.2142C60.4564 21.6487 57.0593 19.0925 53.0637 19.0925H45.2025C40.1373 19.0925 36.0312 23.1986 36.0312 28.2637C36.0312 29.9186 36.4718 31.509 37.2385 32.8493C34.3193 32.8254 31.6176 32.8695 29.917 32.8493C29.917 29.3123 29.917 24.8065 29.917 23.8637L30.2782 23.5025C31.8995 21.8812 31.3589 19.1792 31.3589 19.1792C31.3589 19.1792 28.657 18.6388 27.0357 20.2601L25.1462 22.1496H23.0386C18.3955 22.1496 14.6318 25.9135 14.6318 30.5565H20.7459V37.4349C20.7459 38.4409 20.9488 39.3994 21.3153 40.2722L19.2173 42.0204H16.1602V38.9633H13.1031V45.0775H26.86V51.1917H23.8029V54.2487H29.917V48.1346L32.7192 44.7718H39.343L42.1452 48.1346V51.1917H39.0882V54.2487H51.3164V37.4347C51.3164 34.9022 53.3694 32.8492 55.9019 32.8492C55.967 32.8492 56.0315 32.8515 56.0961 32.8541C55.9695 32.3641 55.9019 31.8504 55.9019 31.3207C55.9022 28.0455 58.4775 25.372 61.7137 25.2142V25.2142ZM45.2025 51.1915V44.7717H45.4572L48.2594 48.1344V51.1915H45.2025Z" fill="#D80027"/>
</g>
<defs>
<clipPath id="clip0_437_590">
<rect width="70.3125" height="70.3125" fill="white" transform="translate(0.875 0.75)"/>
</clipPath>
</defs>
</svg>
