<svg width="72" height="72" viewBox="0 0 72 72" fill="none" xmlns="http://www.w3.org/2000/svg">
<g clip-path="url(#clip0_437_590)">
<path d="M36.0312 71.0625C55.4475 71.0625 71.1875 55.3225 71.1875 35.9062C71.1875 16.49 55.4475 0.75 36.0312 0.75C16.615 0.75 0.875 16.49 0.875 35.9062C0.875 55.3225 16.615 71.0625 36.0312 71.0625Z" fill="#D80027"/>
<path d="M56.8076 29.6015H40.9359L36.0314 14.5068L31.1268 29.6015H15.2551L28.0955 38.9305L23.1908 54.0256L36.0314 44.6964L48.8719 54.0257L43.9672 38.9307L56.8076 29.6015ZM31.6893 37.7628L33.3478 32.6584H38.7148L40.3734 37.7628V37.763L36.0314 40.9175L31.6894 37.763L31.6893 37.7628ZM37.7216 29.6015H34.3413L36.0314 24.3995L37.7216 29.6015ZM42.9738 35.8736L41.9291 32.6586H47.3988L42.9738 35.8736ZM30.1335 32.6586L29.0888 35.8736L24.6637 32.6586H30.1335ZM29.0058 46.0221L30.696 40.8202L33.4309 42.8071L29.0058 46.0221ZM38.6318 42.8072L41.3667 40.8203L43.057 46.0222L38.6318 42.8072Z" fill="#FFDA44"/>
</g>
<defs>
<clipPath id="clip0_437_590">
<rect width="70.3125" height="70.3125" fill="white" transform="translate(0.875 0.75)"/>
</clipPath>
</defs>
</svg>
