<svg width="72" height="72" viewBox="0 0 72 72" fill="none" xmlns="http://www.w3.org/2000/svg">
<g clip-path="url(#clip0_437_590)">
<path d="M71.1875 35.9062C71.1875 31.6059 70.4139 27.4865 69.0008 23.6781L36.0312 22.1494L3.06169 23.6779C1.64857 27.4865 0.875 31.6059 0.875 35.9062C0.875 40.2066 1.64857 44.326 3.06169 48.1344L36.0312 49.6631L69.0008 48.1346C70.4139 44.326 71.1875 40.2066 71.1875 35.9062Z" fill="#F0F0F0"/>
<path d="M36.0312 71.0625C51.1472 71.0625 64.0334 61.522 69.0008 48.1344H3.06165C8.02898 61.522 20.9153 71.0625 36.0312 71.0625Z" fill="#0052B4"/>
<path d="M3.06165 23.6781H69.0009C64.0334 10.2905 51.1472 0.75 36.0312 0.75C20.9153 0.75 8.02898 10.2905 3.06165 23.6781V23.6781Z" fill="#D80027"/>
<path d="M45.2025 25.2067H39.0884L40.1075 17.5639L44.1834 14.5068L48.2595 17.5639V23.6781L45.2025 25.2067Z" fill="#338AF3"/>
<path d="M26.86 25.2067H32.9742L31.9551 17.5639L27.879 14.5068L23.8031 17.5639V23.6781L26.86 25.2067Z" fill="#338AF3"/>
<path d="M40.1074 25.2067H31.955V17.5639L36.0312 14.5068L40.1074 17.5639V25.2067Z" fill="#0052B4"/>
<path d="M23.8031 23.6782V40.4919C23.8031 44.4955 25.737 48.0559 28.7198 50.2879L30.8598 49.7525L33.5602 52.4691C34.3588 52.6336 35.1851 52.7203 36.0314 52.7203C36.8733 52.7203 37.6955 52.6347 38.4898 52.4719L41.5724 49.9052L43.3428 50.283C46.3244 48.0511 48.2596 44.4944 48.2596 40.4919V23.6782H23.8031Z" fill="#F0F0F0"/>
<path d="M23.8031 23.6781H28.6944V28.5693H23.8031V23.6781Z" fill="#D80027"/>
<path d="M33.5856 23.6781H38.4768V28.5693H33.5856V23.6781Z" fill="#D80027"/>
<path d="M43.3683 23.6781H48.2595V28.5693H43.3683V23.6781Z" fill="#D80027"/>
<path d="M28.6945 28.5693H33.5857V33.4606H28.6945V28.5693Z" fill="#D80027"/>
<path d="M38.4771 28.5693H43.3683V33.4606H38.4771V28.5693Z" fill="#D80027"/>
<path d="M23.8031 33.459H28.6944V38.3503H23.8031V33.459Z" fill="#D80027"/>
<path d="M28.6945 38.3504H33.5857V43.2417H28.6945V38.3504Z" fill="#D80027"/>
<path d="M33.5856 33.459H38.4768V38.3503H33.5856V33.459Z" fill="#D80027"/>
<path d="M43.3683 33.459H48.2595V38.3503H43.3683V33.459Z" fill="#D80027"/>
<path d="M38.4771 38.3504H43.3683V43.2417H38.4771V38.3504Z" fill="#D80027"/>
<path d="M33.5856 43.2417H38.4768V48.1329H33.5856V43.2417Z" fill="#D80027"/>
<path d="M28.6943 43.2421H24.1187C24.5383 45.0603 25.3634 46.7241 26.4947 48.1334H28.6943V43.2421Z" fill="#D80027"/>
<path d="M43.3683 48.1335H45.5677C46.6993 46.7242 47.5241 45.0603 47.9438 43.2422H43.3683V48.1335Z" fill="#D80027"/>
<path d="M28.6945 48.1335V50.2677C30.1171 51.3382 31.7796 52.1057 33.5857 52.4741V48.1335H28.6945Z" fill="#D80027"/>
<path d="M38.4771 48.1335V52.4741C40.2833 52.106 41.9457 51.3382 43.3683 50.2677V48.1335H38.4771Z" fill="#D80027"/>
</g>
<defs>
<clipPath id="clip0_437_590">
<rect width="70.3125" height="70.3125" fill="white" transform="translate(0.875 0.75)"/>
</clipPath>
</defs>
</svg>
