<svg width="72" height="72" viewBox="0 0 72 72" fill="none" xmlns="http://www.w3.org/2000/svg">
<g clip-path="url(#clip0_437_590)">
<path d="M36.0312 71.0625C55.4475 71.0625 71.1875 55.3225 71.1875 35.9062C71.1875 16.49 55.4475 0.75 36.0312 0.75C16.615 0.75 0.875 16.49 0.875 35.9062C0.875 55.3225 16.615 71.0625 36.0312 71.0625Z" fill="#F0F0F0"/>
<path d="M71.1875 35.9062C71.1875 21.9682 63.0762 9.92496 51.3165 4.23843V67.5739C63.0762 61.8875 71.1875 49.8443 71.1875 35.9062V35.9062Z" fill="#D80027"/>
<path d="M0.875 35.9062C0.875 49.8443 8.98634 61.8875 20.746 67.5741V4.23843C8.98634 9.92496 0.875 21.9682 0.875 35.9062Z" fill="#D80027"/>
<path d="M42.1455 40.4918L48.2595 37.4347L45.2025 35.9063V32.8492L39.0884 35.9063L42.1455 29.7921H39.0884L36.0313 25.2065L32.9742 29.7921H29.9171L32.9742 35.9063L26.86 32.8492V35.9063L23.8031 37.4347L29.9171 40.4918L28.3887 43.5489H34.5028V48.1344H37.5598V43.5489H43.6739L42.1455 40.4918Z" fill="#D80027"/>
</g>
<defs>
<clipPath id="clip0_437_590">
<rect width="70.3125" height="70.3125" fill="white" transform="translate(0.875 0.75)"/>
</clipPath>
</defs>
</svg>
