<svg width="72" height="72" viewBox="0 0 72 72" fill="none" xmlns="http://www.w3.org/2000/svg">
<g clip-path="url(#clip0_437_590)">
<path d="M48.2594 2.93669C44.4509 1.52357 40.3316 0.75 36.0313 0.75C31.7309 0.75 27.6116 1.52357 23.8031 2.93669L20.746 35.9062L23.8031 68.8758C27.6116 70.2891 31.7309 71.0625 36.0313 71.0625C40.3316 71.0625 44.4509 70.2891 48.2594 68.8758L51.3165 35.9062L48.2594 2.93669Z" fill="#FFDA44"/>
<path d="M71.1875 35.9063C71.1875 20.7905 61.6469 7.90404 48.2594 2.93684V68.8761C61.6469 63.9085 71.1875 51.0224 71.1875 35.9063V35.9063Z" fill="#D80027"/>
<path d="M0.875 35.9063C0.875 51.0224 10.4155 63.9085 23.8031 68.876V2.93684C10.4155 7.90404 0.875 20.7905 0.875 35.9063V35.9063Z" fill="black"/>
</g>
<defs>
<clipPath id="clip0_437_590">
<rect width="70.3125" height="70.3125" fill="white" transform="translate(0.875 0.75)"/>
</clipPath>
</defs>
</svg>
