<svg width="72" height="72" viewBox="0 0 72 72" fill="none" xmlns="http://www.w3.org/2000/svg">
<g clip-path="url(#clip0_437_590)">
<path d="M3.06165 48.1344C8.02898 61.5218 20.9153 71.0625 36.0312 71.0625C51.1472 71.0625 64.0334 61.5218 69.0008 48.1344L36.0312 45.0775L3.06165 48.1344Z" fill="#FFDA44"/>
<path d="M36.0312 0.75C20.9153 0.75 8.02898 10.2905 3.06165 23.6781L36.0312 26.735L69.0008 23.6779C64.0334 10.2905 51.1472 0.75 36.0312 0.75Z" fill="black"/>
<path d="M3.06169 23.6781C1.64857 27.4866 0.875 31.6059 0.875 35.9063C0.875 40.2066 1.64857 44.3259 3.06169 48.1344H69.0009C70.4141 44.3259 71.1875 40.2066 71.1875 35.9063C71.1875 31.6059 70.4141 27.4866 69.0008 23.6781H3.06169Z" fill="#D80027"/>
</g>
<defs>
<clipPath id="clip0_437_590">
<rect width="70.3125" height="70.3125" fill="white" transform="translate(0.875 0.75)"/>
</clipPath>
</defs>
</svg>
