<svg width="72" height="72" viewBox="0 0 72 72" fill="none" xmlns="http://www.w3.org/2000/svg">
<g clip-path="url(#clip0_437_590)">
<path d="M36.0312 71.0625C55.4475 71.0625 71.1875 55.3225 71.1875 35.9062C71.1875 16.49 55.4475 0.75 36.0312 0.75C16.615 0.75 0.875 16.49 0.875 35.9062C0.875 55.3225 16.615 71.0625 36.0312 71.0625Z" fill="#F0F0F0"/>
<path d="M71.1874 35.9062C71.1874 16.4901 55.4473 0.75 36.0312 0.75C29.1537 0.75 22.7385 2.72685 17.3198 6.1403L25.0257 9.41437L14.6317 13.8306L25.0257 18.2467L14.6317 22.6626L25.0257 27.0785L14.6317 31.4937L25.0257 35.9087L14.6317 40.3247L25.0257 44.7404L14.6317 49.1556L25.0257 53.5713L14.6317 57.9873L25.0257 62.4025L17.3232 65.6748C22.7413 69.0866 29.1551 71.0625 36.0312 71.0625C55.4473 71.0625 71.1874 55.3224 71.1874 35.9062Z" fill="#751A46"/>
</g>
<defs>
<clipPath id="clip0_437_590">
<rect width="70.3125" height="70.3125" fill="white" transform="translate(0.875 0.75)"/>
</clipPath>
</defs>
</svg>
