<svg width="72" height="72" viewBox="0 0 72 72" fill="none" xmlns="http://www.w3.org/2000/svg">
<g clip-path="url(#clip0_437_590)">
<path d="M36.0312 71.0625C55.4475 71.0625 71.1875 55.3225 71.1875 35.9062C71.1875 16.49 55.4475 0.75 36.0312 0.75C16.615 0.75 0.875 16.49 0.875 35.9062C0.875 55.3225 16.615 71.0625 36.0312 71.0625Z" fill="#F0F0F0"/>
<path d="M34.5028 35.9062H71.1875C71.1875 32.7331 70.7646 29.6591 69.9764 26.735H34.5028V35.9062Z" fill="#D80027"/>
<path d="M34.5028 17.5639H66.0275C63.8754 14.0521 61.1238 10.9481 57.9155 8.39264H34.5028V17.5639Z" fill="#D80027"/>
<path d="M36.0312 71.0625C44.3051 71.0625 51.91 68.2028 57.9154 63.4199H14.147C20.1524 68.2028 27.7572 71.0625 36.0312 71.0625Z" fill="#D80027"/>
<path d="M6.03496 54.2486H66.0275C67.7552 51.4294 69.0951 48.3477 69.9764 45.0774H2.08606C2.9673 48.3477 4.30722 51.4294 6.03496 54.2486V54.2486Z" fill="#D80027"/>
<path d="M17.16 6.24014H20.3638L17.3837 8.40514L18.5221 11.9083L15.5422 9.74327L12.5623 11.9083L13.5455 8.88194C10.9217 11.0675 8.62201 13.6282 6.72687 16.4813H7.7534L5.85648 17.8594C5.56094 18.3524 5.2775 18.8533 5.00586 19.3615L5.91168 22.1494L4.22171 20.9216C3.80162 21.8116 3.41737 22.7217 3.07199 23.6507L4.06996 26.7225H7.7534L4.77336 28.8875L5.91168 32.3906L2.93178 30.2256L1.14677 31.5226C0.968109 32.9588 0.875 34.4216 0.875 35.9062H36.0312C36.0312 16.4901 36.0312 14.2011 36.0312 0.75C29.0862 0.75 22.6121 2.76462 17.16 6.24014V6.24014ZM18.5221 32.3906L15.5422 30.2256L12.5623 32.3906L13.7006 28.8875L10.7205 26.7225H14.404L15.5422 23.2194L16.6803 26.7225H20.3638L17.3837 28.8875L18.5221 32.3906ZM17.3837 18.6463L18.5221 22.1494L15.5422 19.9845L12.5623 22.1494L13.7006 18.6463L10.7205 16.4813H14.404L15.5422 12.9782L16.6803 16.4813H20.3638L17.3837 18.6463ZM31.1324 32.3906L28.1525 30.2256L25.1726 32.3906L26.311 28.8875L23.3309 26.7225H27.0144L28.1525 23.2194L29.2907 26.7225H32.9742L29.9941 28.8875L31.1324 32.3906ZM29.9941 18.6463L31.1324 22.1494L28.1525 19.9845L25.1726 22.1494L26.311 18.6463L23.3309 16.4813H27.0144L28.1525 12.9782L29.2907 16.4813H32.9742L29.9941 18.6463ZM29.9941 8.40514L31.1324 11.9083L28.1525 9.74327L25.1726 11.9083L26.311 8.40514L23.3309 6.24014H27.0144L28.1525 2.73701L29.2907 6.24014H32.9742L29.9941 8.40514Z" fill="#0052B4"/>
</g>
<defs>
<clipPath id="clip0_437_590">
<rect width="70.3125" height="70.3125" fill="white" transform="translate(0.875 0.75)"/>
</clipPath>
</defs>
</svg>
