<svg width="72" height="72" viewBox="0 0 72 72" fill="none" xmlns="http://www.w3.org/2000/svg">
<g clip-path="url(#clip0_437_590)">
<path d="M36.0312 71.0625C55.4475 71.0625 71.1875 55.3225 71.1875 35.9062C71.1875 16.49 55.4475 0.75 36.0312 0.75C16.615 0.75 0.875 16.49 0.875 35.9062C0.875 55.3225 16.615 71.0625 36.0312 71.0625Z" fill="#F0F0F0"/>
<path d="M47.4498 26.735H42.8501C42.8881 27.2405 42.9097 27.7505 42.9097 28.2635C42.9097 31.6643 42.0596 34.9606 40.5777 37.307C40.1205 38.0307 39.3523 39.0527 38.324 39.7421V26.7349H33.7384V39.7421C32.7102 39.0527 31.9419 38.0309 31.4847 37.307C30.0026 34.9606 29.1527 31.6643 29.1527 28.2635C29.1527 27.7505 29.1744 27.2404 29.2123 26.735H24.6126C24.5831 27.238 24.567 27.7475 24.567 28.2635C24.567 37.6919 29.6026 45.0774 36.031 45.0774C42.4594 45.0774 47.4949 37.6919 47.4949 28.2635C47.4952 27.7475 47.4791 27.238 47.4498 26.735V26.735Z" fill="#D80027"/>
<path d="M15.3961 17.5639H19.9817V20.621H24.5672V17.5639H29.1528V20.621H33.7384V17.5639H38.3239V20.621H42.9095V17.5639H47.495V20.621H52.0806V17.5639H56.6661V20.621H67.6987C62.0126 8.86134 49.9693 0.75 36.0313 0.75C22.0934 0.75 10.05 8.86134 4.36353 20.621H15.3961V17.5639Z" fill="#6DA544"/>
<path d="M56.6665 51.1915V54.2486H52.081V51.1915H47.4954V54.2486H42.9099V51.1915H38.3243V54.2486H33.7388V51.1915H29.1532V54.2486H24.5677V51.1915H19.9817V54.2486H15.3961V51.1915H4.36353C10.05 62.9512 22.0933 71.0625 36.0313 71.0625C49.9694 71.0625 62.0126 62.9512 67.6992 51.1915H56.6665Z" fill="#D80027"/>
</g>
<defs>
<clipPath id="clip0_437_590">
<rect width="70.3125" height="70.3125" fill="white" transform="translate(0.875 0.75)"/>
</clipPath>
</defs>
</svg>
