<svg width="72" height="72" viewBox="0 0 72 72" fill="none" xmlns="http://www.w3.org/2000/svg">
<g clip-path="url(#clip0_437_590)">
<path d="M36.0312 71.0625C55.4475 71.0625 71.1875 55.3225 71.1875 35.9062C71.1875 16.49 55.4475 0.75 36.0312 0.75C16.615 0.75 0.875 16.49 0.875 35.9062C0.875 55.3225 16.615 71.0625 36.0312 71.0625Z" fill="#F0F0F0"/>
<path d="M48.2595 35.9063C48.2595 38.9633 42.7847 46.606 36.0313 46.606C29.2779 46.606 23.8031 38.9633 23.8031 35.9063C23.8031 29.1527 29.2779 23.6781 36.0313 23.6781C42.7847 23.6781 48.2595 29.1527 48.2595 35.9063Z" fill="#D80027"/>
<path d="M48.2595 35.9062C48.2595 42.6598 42.7847 48.1344 36.0313 48.1344C29.2779 48.1344 23.8031 42.6598 23.8031 35.9062" fill="#0052B4"/>
<path d="M48.9917 46.7151L52.2337 43.4731L54.395 45.6345L51.1531 48.8765L48.9917 46.7151Z" fill="black"/>
<path d="M43.5868 52.1187L46.8288 48.8767L48.9901 51.0381L45.7482 54.28L43.5868 52.1187Z" fill="black"/>
<path d="M55.4762 53.1989L58.7182 49.9569L60.8795 52.1182L57.6376 55.3602L55.4762 53.1989Z" fill="black"/>
<path d="M50.0714 58.6032L53.3134 55.3612L55.4748 57.5226L52.2328 60.7646L50.0714 58.6032Z" fill="black"/>
<path d="M52.2336 49.9572L55.4756 46.7153L57.637 48.8766L54.395 52.1186L52.2336 49.9572Z" fill="black"/>
<path d="M46.8303 55.3607L50.0723 52.1187L52.2337 54.2801L48.9917 57.5221L46.8303 55.3607Z" fill="black"/>
<path d="M55.4905 25.1033L46.8451 16.458L49.0065 14.2966L57.6518 22.9419L55.4905 25.1033Z" fill="black"/>
<path d="M46.8435 22.9428L43.6015 19.7008L45.7628 17.5396L49.0048 20.7815L46.8435 22.9428Z" fill="black"/>
<path d="M52.2469 28.3475L49.005 25.1055L51.1662 22.9442L54.4082 26.1862L52.2469 28.3475Z" fill="black"/>
<path d="M53.3268 16.4577L50.0848 13.2157L52.2462 11.0543L55.4881 14.2963L53.3268 16.4577Z" fill="black"/>
<path d="M58.7332 21.863L55.4912 18.621L57.6525 16.4597L60.8945 19.7017L58.7332 21.863Z" fill="black"/>
<path d="M13.3383 49.9512L21.9836 58.5965L19.8222 60.7579L11.1769 52.1125L13.3383 49.9512Z" fill="black"/>
<path d="M21.9832 52.1108L25.2251 55.3528L23.0639 57.5141L19.8219 54.2721L21.9832 52.1108Z" fill="black"/>
<path d="M16.5792 46.7085L19.8212 49.9505L17.6599 52.1118L14.4179 48.8698L16.5792 46.7085Z" fill="black"/>
<path d="M19.8217 43.4656L28.467 52.1109L26.3056 54.2723L17.6603 45.6269L19.8217 43.4656Z" fill="black"/>
<path d="M21.9827 13.209L13.3373 21.8543L11.176 19.693L19.8213 11.0476L21.9827 13.209Z" fill="black"/>
<path d="M25.2246 16.4506L16.5793 25.096L14.4179 22.9346L23.0633 14.2893L25.2246 16.4506Z" fill="black"/>
<path d="M28.4697 19.6946L19.8244 28.3399L17.6631 26.1787L26.3085 17.5333L28.4697 19.6946Z" fill="black"/>
</g>
<defs>
<clipPath id="clip0_437_590">
<rect width="70.3125" height="70.3125" fill="white" transform="translate(0.875 0.75)"/>
</clipPath>
</defs>
</svg>
