<svg width="72" height="72" viewBox="0 0 72 72" fill="none" xmlns="http://www.w3.org/2000/svg">
<g clip-path="url(#clip0_437_590)">
<path d="M36.0312 71.0625C55.4475 71.0625 71.1875 55.3225 71.1875 35.9062C71.1875 16.49 55.4475 0.75 36.0312 0.75C16.615 0.75 0.875 16.49 0.875 35.9062C0.875 55.3225 16.615 71.0625 36.0312 71.0625Z" fill="#F0F0F0"/>
<path d="M69.0008 23.6781H3.06169C1.64857 27.4866 0.875 31.6059 0.875 35.9063C0.875 40.2066 1.64857 44.3259 3.06169 48.1344H69.0009C70.4141 44.3259 71.1875 40.2066 71.1875 35.9063C71.1875 31.6059 70.4141 27.4866 69.0008 23.6781Z" fill="#D80027"/>
<path d="M36.0312 0.75C25.3757 0.75 15.8282 5.49115 9.38098 12.9782H62.6813C56.2342 5.49115 46.6867 0.75 36.0312 0.75V0.75Z" fill="#0052B4"/>
<path d="M62.6814 58.8343H9.38098C15.8282 66.3214 25.3757 71.0625 36.0312 71.0625C46.6867 71.0625 56.2342 66.3214 62.6814 58.8343Z" fill="#0052B4"/>
</g>
<defs>
<clipPath id="clip0_437_590">
<rect width="70.3125" height="70.3125" fill="white" transform="translate(0.875 0.75)"/>
</clipPath>
</defs>
</svg>
